<svg width="37" height="27" viewBox="0 0 37 27" fill="none" xmlns="http://www.w3.org/2000/svg">
<path d="M9.1 26.6999C6.76667 26.6999 4.66667 25.7666 2.8 23.8999C0.933334 21.9666 0 19.1332 0 15.3999C0 11.1332 1.13333 7.66657 3.4 4.9999C5.73333 2.26657 9.03333 0.899902 13.3 0.899902C14.8333 0.899902 16.0333 0.9999 16.9 1.1999V5.7999C15.9667 5.66657 14.7667 5.5999 13.3 5.5999C11.0333 5.5999 9.2 6.36657 7.8 7.8999C6.46667 9.23323 5.7 10.9999 5.5 13.1999C6.36667 12.1332 7.76667 11.5999 9.7 11.5999C11.7 11.5999 13.4 12.2999 14.8 13.6999C16.2 15.0332 16.9 16.7999 16.9 18.9999C16.9 21.2666 16.1667 23.1332 14.7 24.5999C13.2333 25.9999 11.3667 26.6999 9.1 26.6999ZM29 26.6999C26.6667 26.6999 24.5667 25.7666 22.7 23.8999C20.8333 21.9666 19.9 19.1332 19.9 15.3999C19.9 11.1332 21.0333 7.66657 23.3 4.9999C25.6333 2.26657 28.9333 0.899902 33.2 0.899902C34.7333 0.899902 35.9333 0.9999 36.8 1.1999V5.7999C35.8667 5.66657 34.6667 5.5999 33.2 5.5999C30.9333 5.5999 29.1 6.36657 27.7 7.8999C26.3667 9.23323 25.6 10.9999 25.4 13.1999C26.2667 12.1332 27.6667 11.5999 29.6 11.5999C31.6 11.5999 33.3 12.2999 34.7 13.6999C36.1 15.0332 36.8 16.7999 36.8 18.9999C36.8 21.2666 36.0667 23.1332 34.6 24.5999C33.1333 25.9999 31.2667 26.6999 29 26.6999Z" fill="url(#paint0_linear_21_1890)"/>
<defs>
<linearGradient id="paint0_linear_21_1890" x1="18.4" y1="0.899902" x2="18.4" y2="26.6999" gradientUnits="userSpaceOnUse">
<stop stop-color="#130855"/>
<stop offset="1" stop-color="#009DFF"/>
</linearGradient>
</defs>
</svg>
