<svg width="16" height="17" viewBox="0 0 16 17" fill="none" xmlns="http://www.w3.org/2000/svg">
<g clip-path="url(#clip0_21_2236)">
<path d="M9.67027 16.4263C10.2052 16.4263 10.6718 15.9598 10.6718 15.4248V13.0859H11.3405C11.7418 13.0859 12.0092 12.8183 12.0092 12.4171V5.73682H3.99097V12.4172C3.99097 12.8184 4.25845 13.0859 4.65968 13.0859H5.32845V15.4248C5.32845 15.9598 5.79487 16.4263 6.32995 16.4263C6.86487 16.4263 7.33134 15.9598 7.33134 15.4248V13.0859H8.66882V15.4248C8.66877 15.9598 9.13529 16.4263 9.67027 16.4263Z" fill="white"/>
<path d="M13.6795 12.4172C14.2144 12.4172 14.6809 11.9507 14.6809 11.4157V6.73789C14.6809 6.20574 14.2144 5.73682 13.6795 5.73682C13.1445 5.73682 12.678 6.20574 12.678 6.73789V11.4157C12.678 11.9507 13.1444 12.4172 13.6795 12.4172Z" fill="white"/>
<path d="M2.32073 12.4172C2.85575 12.4172 3.32223 11.9507 3.32223 11.4157V6.73789C3.32223 6.20574 2.85581 5.73682 2.32073 5.73682C1.78575 5.73682 1.31934 6.20574 1.31934 6.73789V11.4157C1.31934 11.9507 1.78575 12.4172 2.32073 12.4172Z" fill="white"/>
<path d="M11.2067 0.527178C11.073 0.392634 10.874 0.392634 10.7403 0.527178L9.84336 1.42109L9.80198 1.46242C9.27016 1.19611 8.67389 1.06311 8.00988 1.06183C8.00662 1.06183 8.00342 1.06172 8.00016 1.06172H8.00005C7.99669 1.06172 7.99359 1.06183 7.99023 1.06183C7.32627 1.06311 6.73 1.19611 6.19823 1.46242L6.15675 1.42109L5.2599 0.527178C5.1261 0.392634 4.92717 0.392634 4.79348 0.527178C4.65968 0.660974 4.65968 0.859533 4.79348 0.993223L5.66107 1.86098C5.38152 2.04763 5.12802 2.27604 4.90757 2.53728C4.37981 3.16285 4.04318 3.977 3.99689 4.85912C3.99647 4.8683 3.99556 4.87738 3.99513 4.88656C3.9923 4.94663 3.99097 5.00701 3.99097 5.06761H12.0092C12.0092 5.00701 12.0078 4.94663 12.005 4.88656C12.0046 4.87738 12.0037 4.8683 12.0032 4.85912C11.957 3.977 11.6202 3.1628 11.0925 2.53733C10.8721 2.27609 10.6185 2.04768 10.339 1.86103L11.2067 0.993276C11.3405 0.859533 11.3405 0.660974 11.2067 0.527178ZM6.32867 3.90001C6.052 3.90001 5.8277 3.67572 5.8277 3.39905C5.8277 3.12238 6.052 2.89809 6.32867 2.89809C6.60534 2.89809 6.82963 3.12238 6.82963 3.39905C6.82963 3.67572 6.60534 3.90001 6.32867 3.90001ZM9.67149 3.90001C9.39483 3.90001 9.17053 3.67572 9.17053 3.39905C9.17053 3.12238 9.39483 2.89809 9.67149 2.89809C9.94816 2.89809 10.1725 3.12238 10.1725 3.39905C10.1725 3.67572 9.94816 3.90001 9.67149 3.90001Z" fill="white"/>
</g>
<defs>
<clipPath id="clip0_21_2236">
<rect width="16" height="16" fill="white" transform="translate(0 0.42627)"/>
</clipPath>
</defs>
</svg>
