<svg width="16" height="17" viewBox="0 0 16 17" fill="none" xmlns="http://www.w3.org/2000/svg">
<g clip-path="url(#clip0_21_2229)">
<path d="M10.9994 0.42627C10.1464 0.485269 9.14941 1.03127 8.56842 1.74226C8.03843 2.38726 7.60243 3.34525 7.77243 4.27625C8.70442 4.30525 9.66741 3.74625 10.2254 3.02325C10.7474 2.35026 11.1424 1.39826 10.9994 0.42627Z" fill="white"/>
<path d="M14.3703 5.79438C13.5513 4.76739 12.4003 4.17139 11.3133 4.17139C9.87832 4.17139 9.27133 4.85839 8.27433 4.85839C7.24634 4.85839 6.46534 4.17339 5.22435 4.17339C4.00536 4.17339 2.70736 4.91839 1.88437 6.19238C0.727376 7.98638 0.925374 11.3594 2.80036 14.2324C3.47136 15.2604 4.36735 16.4164 5.53935 16.4264C6.58234 16.4364 6.87634 15.7574 8.28933 15.7504C9.70232 15.7424 9.97032 16.4354 11.0113 16.4244C12.1843 16.4154 13.1293 15.1344 13.8003 14.1064C14.2813 13.3694 14.4603 12.9984 14.8333 12.1664C12.1203 11.1334 11.6853 7.27538 14.3703 5.79438Z" fill="white"/>
</g>
<defs>
<clipPath id="clip0_21_2229">
<rect width="16" height="16" fill="white" transform="translate(0 0.42627)"/>
</clipPath>
</defs>
</svg>
