<svg width="40" height="40" viewBox="0 0 40 40" fill="none" xmlns="http://www.w3.org/2000/svg">
<g clip-path="url(#clip0_21_1708)">
<path d="M34.4978 29.0242L34.453 28.9712C32.2669 26.3824 29.2741 24.6202 25.9435 23.8977C27.6885 22.6493 29.0377 20.882 29.7652 18.8235H32.4446C33.946 18.8235 35.1673 17.6022 35.1673 16.1009V15.2941C35.1673 6.86094 28.3064 0 19.8732 0C11.44 0 4.57907 6.86094 4.57907 15.2941V16.1009C4.57907 17.6022 5.80048 18.8235 7.30174 18.8235H9.88401C10.6234 20.9158 12.0054 22.7068 13.7922 23.9584C10.5679 24.7154 7.67515 26.4511 5.54707 28.9711L5.50189 29.0247C3.0506 31.9276 1.80762 35.2245 1.80762 38.8235V40H38.1926V38.8235C38.1926 35.2245 36.9496 31.9277 34.4978 29.0242V29.0242ZM19.8246 23.5076C16.5631 23.5076 13.7412 21.5902 12.4261 18.8235H18.3046V16.4706H11.7191C11.666 16.0948 11.638 15.7111 11.638 15.3209C11.638 10.8067 15.3105 7.1342 19.8246 7.1342C24.3388 7.1342 28.0113 10.8067 28.0113 15.3209C28.0113 19.8351 24.3388 23.5076 19.8246 23.5076V23.5076ZM32.8144 16.1009C32.8144 16.3048 32.6486 16.4706 32.4447 16.4706H30.3013C30.3425 16.0929 30.3643 15.7094 30.3643 15.3209C30.3643 14.914 30.3403 14.5127 30.2952 14.1176H32.7604C32.7955 14.5053 32.8144 14.8975 32.8144 15.2941V16.1009ZM19.8733 2.35294C25.786 2.35294 30.7852 6.33882 32.3252 11.7647H29.7463C28.2841 7.69773 24.3888 4.78125 19.8246 4.78125C15.2605 4.78125 11.3652 7.69773 9.90307 11.7647H7.42134C8.96134 6.33882 13.9606 2.35294 19.8733 2.35294V2.35294ZM7.30181 16.4706C7.09789 16.4706 6.93209 16.3048 6.93209 16.1009V15.2941C6.93209 14.8975 6.95107 14.5053 6.98613 14.1176H9.35413C9.30903 14.5127 9.28503 14.914 9.28503 15.3209C9.28503 15.7094 9.30683 16.0929 9.34801 16.4706H7.30181ZM4.21475 37.6471C4.45468 35.0717 5.48942 32.6865 7.2997 30.5428L7.34487 30.4893C9.81727 27.5615 13.522 25.8824 17.5091 25.8824H22.4911C26.4783 25.8824 30.183 27.5615 32.6557 30.4897L32.7005 30.5427C34.5108 32.6865 35.5455 35.0717 35.7854 37.6471H4.21475Z" fill="url(#paint0_linear_21_1708)"/>
</g>
<defs>
<linearGradient id="paint0_linear_21_1708" x1="20.0001" y1="0" x2="20.0001" y2="40" gradientUnits="userSpaceOnUse">
<stop stop-color="#130855"/>
<stop offset="1" stop-color="#009DFF"/>
</linearGradient>
<clipPath id="clip0_21_1708">
<rect width="40" height="40" fill="white"/>
</clipPath>
</defs>
</svg>
