<svg width="40" height="40" viewBox="0 0 40 40" fill="none" xmlns="http://www.w3.org/2000/svg">
<g clip-path="url(#clip0_21_1687)">
<path d="M37.8386 26.7448V7.57811H32.3023C31.3862 5.6117 29.3919 4.24475 27.0834 4.24475C24.7748 4.24475 22.7805 5.6117 21.8644 7.57811H2.16148V26.7448H0V29.8849C0 33.1218 2.63336 35.7551 5.87031 35.7551H34.1298C37.3667 35.7551 40.0001 33.1218 40.0001 29.8849V26.7448H37.8386ZM27.0834 6.5885C28.9645 6.5885 30.4948 8.11889 30.4948 9.99999C30.4948 11.8811 28.9645 13.4115 27.0834 13.4115C25.2023 13.4115 23.6719 11.8811 23.6719 9.99999C23.6719 8.11889 25.2023 6.5885 27.0834 6.5885ZM29.2318 15.3376V19.0183L27.0834 18.479L24.9349 19.0183V15.3376C25.5992 15.6059 26.324 15.7551 27.0834 15.7551C27.8427 15.7551 28.5675 15.606 29.2318 15.3376ZM4.50523 9.92186H21.3301C21.3301 11.2796 21.8018 12.6063 22.5912 13.5915V22.023L27.0834 20.8955L31.5755 22.023V13.5915C32.3649 12.6063 32.8366 11.2796 32.8366 9.92186H35.4948V26.7448H20.4851C20.3963 24.4367 19.1298 22.4256 17.2692 21.2987C18.2204 20.3897 18.8148 19.1105 18.8148 17.6941C18.8148 14.9436 16.577 12.7059 13.8265 12.7059C11.076 12.7059 8.83828 14.9437 8.83828 17.6941C8.83828 19.1105 9.43258 20.3898 10.3838 21.2987C8.52328 22.4255 7.25664 24.4366 7.16797 26.7448H4.50523V9.92186ZM13.8262 22.6823H13.8266C13.8266 22.6823 13.8268 22.6823 13.827 22.6823C16.1226 22.6826 18.0058 24.4823 18.1402 26.7448H9.51289C9.64742 24.4823 11.5305 22.6826 13.8262 22.6823ZM11.1821 17.6941C11.1821 16.2359 12.3684 15.0497 13.8266 15.0497C15.2848 15.0497 16.4711 16.236 16.4711 17.6941C16.4711 19.1522 15.285 20.3384 13.827 20.3386C13.8268 20.3386 13.8267 20.3386 13.8266 20.3386C13.8264 20.3386 13.8263 20.3386 13.8262 20.3386C12.3682 20.3384 11.1821 19.1522 11.1821 17.6941ZM37.6562 29.8849C37.6562 31.8294 36.0743 33.4114 34.1298 33.4114H5.87031C3.92578 33.4114 2.34375 31.8294 2.34375 29.8849V29.0911H37.6562V29.8849Z" fill="url(#paint0_linear_21_1687)"/>
</g>
<defs>
<linearGradient id="paint0_linear_21_1687" x1="20" y1="4.24475" x2="20" y2="35.7551" gradientUnits="userSpaceOnUse">
<stop stop-color="#130855"/>
<stop offset="1" stop-color="#009DFF"/>
</linearGradient>
<clipPath id="clip0_21_1687">
<rect width="40" height="40" fill="white"/>
</clipPath>
</defs>
</svg>
