<svg width="12" height="12" viewBox="0 0 12 12" fill="none" xmlns="http://www.w3.org/2000/svg">
<path d="M5.73308 11.388C5.80358 11.46 5.89958 11.5 6.00008 11.5C6.10058 11.5 6.19658 11.46 6.26708 11.388L11.0641 6.5275C12.3096 5.266 12.3096 3.2125 11.0641 1.9505C10.4591 1.3375 9.65458 1 8.79808 1C7.94158 1 7.13758 1.3375 6.53258 1.95L6.00008 2.49L5.46758 1.9505C4.86258 1.3375 4.05808 1 3.20208 1C2.34558 1 1.54108 1.3375 0.936079 1.9505C-0.309422 3.2125 -0.309422 5.266 0.936079 6.527L5.73308 11.388ZM1.46958 2.477C1.93258 2.0085 2.54808 1.75 3.20158 1.75C3.85558 1.75 4.47058 2.0085 4.93308 2.4775L5.73258 3.2875C5.87308 3.43 6.12558 3.43 6.26608 3.2875L7.06558 2.477C7.52958 2.0085 8.14458 1.75 8.79808 1.75C9.45208 1.75 10.0671 2.0085 10.5301 2.477C11.4886 3.4485 11.4886 5.029 10.5301 6.001L6.00008 10.5915L1.46958 6.0005C0.511078 5.0295 0.511078 3.4485 1.46958 2.477V2.477Z" fill="#051036"/>
</svg>
