<svg width="1229" height="15" viewBox="0 0 1229 15" fill="none" xmlns="http://www.w3.org/2000/svg">
<path d="M0.561391 11V1.2H1.73739V5.526H6.81939V1.2H7.99539V11H6.81939V6.492H1.73739V11H0.561391ZM13.1573 11.168C12.504 11.168 11.916 11.0187 11.3933 10.72C10.8707 10.4213 10.4553 10.0013 10.1473 9.46C9.84868 8.90933 9.69934 8.26533 9.69934 7.528C9.69934 6.79067 9.85334 6.15133 10.1613 5.61C10.4693 5.05933 10.8847 4.63467 11.4073 4.336C11.9393 4.03733 12.532 3.888 13.1853 3.888C13.8387 3.888 14.4267 4.03733 14.9493 4.336C15.472 4.63467 15.8827 5.05933 16.1813 5.61C16.4893 6.15133 16.6433 6.79067 16.6433 7.528C16.6433 8.26533 16.4893 8.90933 16.1813 9.46C15.8733 10.0013 15.4533 10.4213 14.9213 10.72C14.3987 11.0187 13.8107 11.168 13.1573 11.168ZM13.1573 10.16C13.5587 10.16 13.932 10.062 14.2773 9.866C14.6227 9.67 14.9027 9.376 15.1173 8.984C15.332 8.592 15.4393 8.10667 15.4393 7.528C15.4393 6.94933 15.332 6.464 15.1173 6.072C14.912 5.68 14.6367 5.386 14.2913 5.19C13.946 4.994 13.5773 4.896 13.1853 4.896C12.784 4.896 12.4107 4.994 12.0653 5.19C11.72 5.386 11.44 5.68 11.2253 6.072C11.0107 6.464 10.9033 6.94933 10.9033 7.528C10.9033 8.10667 11.0107 8.592 11.2253 8.984C11.44 9.376 11.7153 9.67 12.0513 9.866C12.3967 10.062 12.7653 10.16 13.1573 10.16ZM18.2785 11V4.056H19.3425L19.4265 5.064C19.6505 4.69067 19.9492 4.40133 20.3225 4.196C20.6958 3.99067 21.1158 3.888 21.5825 3.888C22.1332 3.888 22.6045 4 22.9965 4.224C23.3978 4.448 23.7058 4.78867 23.9205 5.246C24.1632 4.826 24.4945 4.49467 24.9145 4.252C25.3438 4.00933 25.8058 3.888 26.3005 3.888C27.1312 3.888 27.7938 4.14 28.2885 4.644C28.7832 5.13867 29.0305 5.904 29.0305 6.94V11H27.8685V7.066C27.8685 6.34733 27.7238 5.806 27.4345 5.442C27.1452 5.078 26.7298 4.896 26.1885 4.896C25.6285 4.896 25.1618 5.11533 24.7885 5.554C24.4245 5.98333 24.2425 6.59933 24.2425 7.402V11H23.0665V7.066C23.0665 6.34733 22.9218 5.806 22.6325 5.442C22.3432 5.078 21.9278 4.896 21.3865 4.896C20.8358 4.896 20.3738 5.11533 20.0005 5.554C19.6365 5.98333 19.4545 6.59933 19.4545 7.402V11H18.2785ZM33.9239 11.168C33.2613 11.168 32.6733 11.0187 32.1599 10.72C31.6466 10.412 31.2406 9.98733 30.9419 9.446C30.6526 8.90467 30.5079 8.26533 30.5079 7.528C30.5079 6.8 30.6526 6.16533 30.9419 5.624C31.2313 5.07333 31.6326 4.64867 32.1459 4.35C32.6686 4.042 33.2706 3.888 33.9519 3.888C34.6239 3.888 35.2026 4.042 35.6879 4.35C36.1826 4.64867 36.5606 5.04533 36.8219 5.54C37.0833 6.03467 37.2139 6.56667 37.2139 7.136C37.2139 7.23867 37.2093 7.34133 37.1999 7.444C37.1999 7.54667 37.1999 7.66333 37.1999 7.794H31.6699C31.6979 8.326 31.8193 8.76933 32.0339 9.124C32.2579 9.46933 32.5333 9.73067 32.8599 9.908C33.1959 10.0853 33.5506 10.174 33.9239 10.174C34.4093 10.174 34.8153 10.062 35.1419 9.838C35.4686 9.614 35.7066 9.31067 35.8559 8.928H37.0179C36.8313 9.572 36.4719 10.1087 35.9399 10.538C35.4173 10.958 34.7453 11.168 33.9239 11.168ZM33.9239 4.882C33.3639 4.882 32.8646 5.05467 32.4259 5.4C31.9966 5.736 31.7493 6.23067 31.6839 6.884H36.0519C36.0239 6.25867 35.8093 5.76867 35.4079 5.414C35.0066 5.05933 34.5119 4.882 33.9239 4.882ZM87.5176 11.168C86.6029 11.168 85.8002 10.958 85.1096 10.538C84.4189 10.1087 83.8822 9.516 83.4996 8.76C83.1169 7.99467 82.9256 7.11267 82.9256 6.114C82.9256 5.11533 83.1169 4.23333 83.4996 3.468C83.8916 2.70267 84.4422 2.10533 85.1516 1.676C85.8702 1.24667 86.7149 1.032 87.6856 1.032C88.7869 1.032 89.7016 1.298 90.4296 1.83C91.1669 2.362 91.6429 3.09467 91.8576 4.028H90.4996C90.3689 3.44 90.0562 2.97333 89.5616 2.628C89.0762 2.28267 88.4509 2.11 87.6856 2.11C86.9669 2.11 86.3416 2.27333 85.8096 2.6C85.2776 2.91733 84.8622 3.37467 84.5636 3.972C84.2742 4.56933 84.1296 5.28333 84.1296 6.114C84.1296 6.94467 84.2742 7.65867 84.5636 8.256C84.8529 8.85333 85.2542 9.31533 85.7676 9.642C86.2809 9.95933 86.8782 10.118 87.5596 10.118C88.6049 10.118 89.3936 9.81467 89.9256 9.208C90.4576 8.592 90.7609 7.752 90.8356 6.688H88.0076V5.764H92.0396V11H90.9616L90.8636 9.39C90.5089 9.95933 90.0749 10.398 89.5616 10.706C89.0482 11.014 88.3669 11.168 87.5176 11.168ZM93.8293 11V4.056H94.8933L94.9913 5.386C95.2059 4.92867 95.5326 4.56467 95.9713 4.294C96.4099 4.02333 96.9513 3.888 97.5953 3.888V5.12H97.2733C96.8626 5.12 96.4846 5.19467 96.1393 5.344C95.7939 5.484 95.5186 5.72667 95.3133 6.072C95.1079 6.41733 95.0053 6.89333 95.0053 7.5V11H93.8293ZM101.225 11.168C100.647 11.168 100.166 11.07 99.7832 10.874C99.4006 10.678 99.1159 10.4167 98.9292 10.09C98.7426 9.76333 98.6492 9.40867 98.6492 9.026C98.6492 8.31667 98.9199 7.77067 99.4612 7.388C100.003 7.00533 100.74 6.814 101.673 6.814H103.549V6.73C103.549 6.12333 103.391 5.666 103.073 5.358C102.756 5.04067 102.331 4.882 101.799 4.882C101.342 4.882 100.945 4.99867 100.609 5.232C100.283 5.456 100.077 5.78733 99.9932 6.226H98.7892C98.8359 5.722 99.0039 5.29733 99.2932 4.952C99.5919 4.60667 99.9606 4.34533 100.399 4.168C100.838 3.98133 101.305 3.888 101.799 3.888C102.77 3.888 103.498 4.14933 103.983 4.672C104.478 5.18533 104.725 5.87133 104.725 6.73V11H103.675L103.605 9.754C103.409 10.146 103.12 10.482 102.737 10.762C102.364 11.0327 101.86 11.168 101.225 11.168ZM101.407 10.174C101.855 10.174 102.238 10.0573 102.555 9.824C102.882 9.59067 103.129 9.28733 103.297 8.914C103.465 8.54067 103.549 8.14867 103.549 7.738V7.724H101.771C101.081 7.724 100.591 7.84533 100.301 8.088C100.021 8.32133 99.8812 8.61533 99.8812 8.97C99.8812 9.334 100.012 9.628 100.273 9.852C100.544 10.0667 100.922 10.174 101.407 10.174ZM106.489 14.08V4.056H107.553L107.665 5.204C107.889 4.868 108.207 4.56467 108.617 4.294C109.037 4.02333 109.569 3.888 110.213 3.888C110.904 3.888 111.506 4.04667 112.019 4.364C112.533 4.68133 112.929 5.11533 113.209 5.666C113.499 6.21667 113.643 6.842 113.643 7.542C113.643 8.242 113.499 8.86733 113.209 9.418C112.929 9.95933 112.528 10.3887 112.005 10.706C111.492 11.014 110.89 11.168 110.199 11.168C109.63 11.168 109.121 11.0513 108.673 10.818C108.235 10.5847 107.899 10.258 107.665 9.838V14.08H106.489ZM110.073 10.146C110.54 10.146 110.951 10.0387 111.305 9.824C111.66 9.6 111.94 9.292 112.145 8.9C112.351 8.508 112.453 8.05067 112.453 7.528C112.453 7.00533 112.351 6.548 112.145 6.156C111.94 5.764 111.66 5.46067 111.305 5.246C110.951 5.022 110.54 4.91 110.073 4.91C109.607 4.91 109.196 5.022 108.841 5.246C108.487 5.46067 108.207 5.764 108.001 6.156C107.796 6.548 107.693 7.00533 107.693 7.528C107.693 8.05067 107.796 8.508 108.001 8.9C108.207 9.292 108.487 9.6 108.841 9.824C109.196 10.0387 109.607 10.146 110.073 10.146ZM115.28 11V0.92H116.456V5.246C116.69 4.81667 117.021 4.48533 117.45 4.252C117.88 4.00933 118.346 3.888 118.85 3.888C119.653 3.888 120.297 4.14 120.782 4.644C121.268 5.13867 121.51 5.904 121.51 6.94V11H120.348V7.066C120.348 5.61933 119.765 4.896 118.598 4.896C117.992 4.896 117.483 5.11533 117.072 5.554C116.662 5.98333 116.456 6.59933 116.456 7.402V11H115.28ZM124.006 2.516C123.773 2.516 123.577 2.44133 123.418 2.292C123.269 2.13333 123.194 1.93733 123.194 1.704C123.194 1.48 123.269 1.29333 123.418 1.144C123.577 0.994666 123.773 0.92 124.006 0.92C124.23 0.92 124.422 0.994666 124.58 1.144C124.739 1.29333 124.818 1.48 124.818 1.704C124.818 1.93733 124.739 2.13333 124.58 2.292C124.422 2.44133 124.23 2.516 124.006 2.516ZM123.418 11V4.056H124.594V11H123.418ZM129.834 11.168C129.171 11.168 128.574 11.0187 128.042 10.72C127.519 10.412 127.104 9.98733 126.796 9.446C126.497 8.89533 126.348 8.256 126.348 7.528C126.348 6.8 126.497 6.16533 126.796 5.624C127.104 5.07333 127.519 4.64867 128.042 4.35C128.574 4.042 129.171 3.888 129.834 3.888C130.655 3.888 131.346 4.10267 131.906 4.532C132.475 4.96133 132.834 5.53533 132.984 6.254H131.78C131.686 5.82467 131.458 5.49333 131.094 5.26C130.73 5.01733 130.305 4.896 129.82 4.896C129.428 4.896 129.059 4.994 128.714 5.19C128.368 5.386 128.088 5.68 127.874 6.072C127.659 6.464 127.552 6.94933 127.552 7.528C127.552 8.10667 127.659 8.592 127.874 8.984C128.088 9.376 128.368 9.67467 128.714 9.88C129.059 10.076 129.428 10.174 129.82 10.174C130.305 10.174 130.73 10.0573 131.094 9.824C131.458 9.58133 131.686 9.24067 131.78 8.802H132.984C132.844 9.502 132.489 10.0713 131.92 10.51C131.35 10.9487 130.655 11.168 129.834 11.168ZM137.286 11.168C136.455 11.168 135.765 10.958 135.214 10.538C134.663 10.118 134.341 9.54867 134.248 8.83H135.452C135.527 9.194 135.718 9.51133 136.026 9.782C136.343 10.0433 136.768 10.174 137.3 10.174C137.795 10.174 138.159 10.0713 138.392 9.866C138.625 9.65133 138.742 9.39933 138.742 9.11C138.742 8.69 138.588 8.41 138.28 8.27C137.981 8.13 137.557 8.004 137.006 7.892C136.633 7.81733 136.259 7.71 135.886 7.57C135.513 7.43 135.2 7.234 134.948 6.982C134.696 6.72067 134.57 6.38 134.57 5.96C134.57 5.35333 134.794 4.85867 135.242 4.476C135.699 4.084 136.315 3.888 137.09 3.888C137.827 3.888 138.429 4.07467 138.896 4.448C139.372 4.812 139.647 5.33467 139.722 6.016H138.56C138.513 5.66133 138.359 5.386 138.098 5.19C137.846 4.98467 137.505 4.882 137.076 4.882C136.656 4.882 136.329 4.97067 136.096 5.148C135.872 5.32533 135.76 5.55867 135.76 5.848C135.76 6.128 135.905 6.34733 136.194 6.506C136.493 6.66467 136.894 6.8 137.398 6.912C137.827 7.00533 138.233 7.122 138.616 7.262C139.008 7.39267 139.325 7.59333 139.568 7.864C139.82 8.12533 139.946 8.508 139.946 9.012C139.955 9.63733 139.717 10.1553 139.232 10.566C138.756 10.9673 138.107 11.168 137.286 11.168ZM148.299 11.168C147.627 11.168 147.035 11.0467 146.521 10.804C146.017 10.552 145.621 10.2067 145.331 9.768C145.051 9.32 144.911 8.79267 144.911 8.186C144.911 7.52333 145.103 6.93533 145.485 6.422C145.877 5.89933 146.442 5.48867 147.179 5.19C146.862 4.84467 146.633 4.518 146.493 4.21C146.353 3.89267 146.283 3.552 146.283 3.188C146.283 2.56267 146.503 2.04933 146.941 1.648C147.389 1.23733 148.001 1.032 148.775 1.032C149.279 1.032 149.718 1.13 150.091 1.326C150.465 1.51267 150.754 1.774 150.959 2.11C151.165 2.446 151.258 2.82867 151.239 3.258H150.077C150.087 2.838 149.956 2.52067 149.685 2.306C149.424 2.09133 149.121 1.984 148.775 1.984C148.355 1.984 148.029 2.096 147.795 2.32C147.562 2.544 147.445 2.82867 147.445 3.174C147.445 3.47267 147.525 3.762 147.683 4.042C147.851 4.322 148.099 4.63467 148.425 4.98L151.519 8.102C151.79 7.71 152.084 7.23867 152.401 6.688L152.835 5.932H154.081L153.465 7.024C153.055 7.76133 152.663 8.37733 152.289 8.872L154.403 11H152.919L151.617 9.684C151.123 10.216 150.609 10.5987 150.077 10.832C149.545 11.056 148.953 11.168 148.299 11.168ZM146.087 8.144C146.087 8.72267 146.293 9.20333 146.703 9.586C147.114 9.96867 147.651 10.16 148.313 10.16C148.808 10.16 149.256 10.0667 149.657 9.88C150.068 9.684 150.469 9.36667 150.861 8.928L147.893 5.918C147.277 6.16067 146.82 6.46867 146.521 6.842C146.232 7.21533 146.087 7.64933 146.087 8.144ZM159.36 11V1.2H162.37C164.097 1.2 165.366 1.63867 166.178 2.516C167 3.39333 167.41 4.59733 167.41 6.128C167.41 7.63067 167 8.82067 166.178 9.698C165.366 10.566 164.097 11 162.37 11H159.36ZM160.536 10.02H162.342C163.294 10.02 164.05 9.866 164.61 9.558C165.18 9.24067 165.586 8.79267 165.828 8.214C166.071 7.626 166.192 6.93067 166.192 6.128C166.192 5.30667 166.071 4.602 165.828 4.014C165.586 3.426 165.18 2.97333 164.61 2.656C164.05 2.33867 163.294 2.18 162.342 2.18H160.536V10.02ZM172.16 11.168C171.498 11.168 170.91 11.0187 170.396 10.72C169.883 10.412 169.477 9.98733 169.178 9.446C168.889 8.90467 168.744 8.26533 168.744 7.528C168.744 6.8 168.889 6.16533 169.178 5.624C169.468 5.07333 169.869 4.64867 170.382 4.35C170.905 4.042 171.507 3.888 172.188 3.888C172.86 3.888 173.439 4.042 173.924 4.35C174.419 4.64867 174.797 5.04533 175.058 5.54C175.32 6.03467 175.45 6.56667 175.45 7.136C175.45 7.23867 175.446 7.34133 175.436 7.444C175.436 7.54667 175.436 7.66333 175.436 7.794H169.906C169.934 8.326 170.056 8.76933 170.27 9.124C170.494 9.46933 170.77 9.73067 171.096 9.908C171.432 10.0853 171.787 10.174 172.16 10.174C172.646 10.174 173.052 10.062 173.378 9.838C173.705 9.614 173.943 9.31067 174.092 8.928H175.254C175.068 9.572 174.708 10.1087 174.176 10.538C173.654 10.958 172.982 11.168 172.16 11.168ZM172.16 4.882C171.6 4.882 171.101 5.05467 170.662 5.4C170.233 5.736 169.986 6.23067 169.92 6.884H174.288C174.26 6.25867 174.046 5.76867 173.644 5.414C173.243 5.05933 172.748 4.882 172.16 4.882ZM179.669 11.168C178.838 11.168 178.148 10.958 177.597 10.538C177.046 10.118 176.724 9.54867 176.631 8.83H177.835C177.91 9.194 178.101 9.51133 178.409 9.782C178.726 10.0433 179.151 10.174 179.683 10.174C180.178 10.174 180.542 10.0713 180.775 9.866C181.008 9.65133 181.125 9.39933 181.125 9.11C181.125 8.69 180.971 8.41 180.663 8.27C180.364 8.13 179.94 8.004 179.389 7.892C179.016 7.81733 178.642 7.71 178.269 7.57C177.896 7.43 177.583 7.234 177.331 6.982C177.079 6.72067 176.953 6.38 176.953 5.96C176.953 5.35333 177.177 4.85867 177.625 4.476C178.082 4.084 178.698 3.888 179.473 3.888C180.21 3.888 180.812 4.07467 181.279 4.448C181.755 4.812 182.03 5.33467 182.105 6.016H180.943C180.896 5.66133 180.742 5.386 180.481 5.19C180.229 4.98467 179.888 4.882 179.459 4.882C179.039 4.882 178.712 4.97067 178.479 5.148C178.255 5.32533 178.143 5.55867 178.143 5.848C178.143 6.128 178.288 6.34733 178.577 6.506C178.876 6.66467 179.277 6.8 179.781 6.912C180.21 7.00533 180.616 7.122 180.999 7.262C181.391 7.39267 181.708 7.59333 181.951 7.864C182.203 8.12533 182.329 8.508 182.329 9.012C182.338 9.63733 182.1 10.1553 181.615 10.566C181.139 10.9673 180.49 11.168 179.669 11.168ZM184.723 2.516C184.49 2.516 184.294 2.44133 184.135 2.292C183.986 2.13333 183.911 1.93733 183.911 1.704C183.911 1.48 183.986 1.29333 184.135 1.144C184.294 0.994666 184.49 0.92 184.723 0.92C184.947 0.92 185.138 0.994666 185.297 1.144C185.456 1.29333 185.535 1.48 185.535 1.704C185.535 1.93733 185.456 2.13333 185.297 2.292C185.138 2.44133 184.947 2.516 184.723 2.516ZM184.135 11V4.056H185.311V11H184.135ZM190.103 8.816C189.711 8.816 189.351 8.76467 189.025 8.662L188.325 9.32C188.427 9.39467 188.553 9.46 188.703 9.516C188.861 9.56267 189.085 9.60933 189.375 9.656C189.664 9.69333 190.07 9.73533 190.593 9.782C191.526 9.84733 192.193 10.062 192.595 10.426C192.996 10.79 193.197 11.266 193.197 11.854C193.197 12.2553 193.085 12.638 192.861 13.002C192.646 13.366 192.31 13.6647 191.853 13.898C191.405 14.1313 190.826 14.248 190.117 14.248C189.491 14.248 188.936 14.164 188.451 13.996C187.965 13.8373 187.587 13.59 187.317 13.254C187.046 12.9273 186.911 12.512 186.911 12.008C186.911 11.7467 186.981 11.462 187.121 11.154C187.261 10.8553 187.522 10.5707 187.905 10.3C187.699 10.216 187.522 10.1273 187.373 10.034C187.233 9.93133 187.102 9.81933 186.981 9.698V9.376L188.171 8.2C187.62 7.73333 187.345 7.11733 187.345 6.352C187.345 5.89467 187.452 5.47933 187.667 5.106C187.881 4.73267 188.194 4.43867 188.605 4.224C189.015 4 189.515 3.888 190.103 3.888C190.504 3.888 190.868 3.944 191.195 4.056H193.757V4.938L192.455 4.994C192.725 5.386 192.861 5.83867 192.861 6.352C192.861 6.80933 192.749 7.22467 192.525 7.598C192.31 7.97133 191.997 8.27 191.587 8.494C191.185 8.70867 190.691 8.816 190.103 8.816ZM190.103 7.85C190.597 7.85 190.989 7.724 191.279 7.472C191.577 7.21067 191.727 6.83733 191.727 6.352C191.727 5.876 191.577 5.512 191.279 5.26C190.989 4.99867 190.597 4.868 190.103 4.868C189.599 4.868 189.197 4.99867 188.899 5.26C188.609 5.512 188.465 5.876 188.465 6.352C188.465 6.83733 188.609 7.21067 188.899 7.472C189.197 7.724 189.599 7.85 190.103 7.85ZM188.059 11.896C188.059 12.3627 188.255 12.708 188.647 12.932C189.039 13.1653 189.529 13.282 190.117 13.282C190.695 13.282 191.157 13.156 191.503 12.904C191.857 12.652 192.035 12.316 192.035 11.896C192.035 11.5973 191.913 11.336 191.671 11.112C191.428 10.8973 190.98 10.7713 190.327 10.734C189.813 10.6967 189.37 10.65 188.997 10.594C188.614 10.7993 188.362 11.0187 188.241 11.252C188.119 11.4947 188.059 11.7093 188.059 11.896ZM195.083 11V4.056H196.147L196.217 5.302C196.441 4.86333 196.763 4.518 197.183 4.266C197.603 4.014 198.079 3.888 198.611 3.888C199.433 3.888 200.086 4.14 200.571 4.644C201.066 5.13867 201.313 5.904 201.313 6.94V11H200.137V7.066C200.137 5.61933 199.54 4.896 198.345 4.896C197.748 4.896 197.249 5.11533 196.847 5.554C196.455 5.98333 196.259 6.59933 196.259 7.402V11H195.083ZM382.546 11.014L379.858 1.2H381.118L383.232 9.614L385.64 1.2H386.942L389.28 9.614L391.422 1.2H392.682L389.938 11H388.594L386.256 2.908L383.862 11L382.546 11.014ZM393.763 11V4.056H394.827L394.925 5.386C395.14 4.92867 395.466 4.56467 395.905 4.294C396.344 4.02333 396.885 3.888 397.529 3.888V5.12H397.207C396.796 5.12 396.418 5.19467 396.073 5.344C395.728 5.484 395.452 5.72667 395.247 6.072C395.042 6.41733 394.939 6.89333 394.939 7.5V11H393.763ZM399.563 2.516C399.329 2.516 399.133 2.44133 398.975 2.292C398.825 2.13333 398.751 1.93733 398.751 1.704C398.751 1.48 398.825 1.29333 398.975 1.144C399.133 0.994666 399.329 0.92 399.563 0.92C399.787 0.92 399.978 0.994666 400.137 1.144C400.295 1.29333 400.375 1.48 400.375 1.704C400.375 1.93733 400.295 2.13333 400.137 2.292C399.978 2.44133 399.787 2.516 399.563 2.516ZM398.975 11V4.056H400.151V11H398.975ZM404.942 11C404.308 11 403.808 10.846 403.444 10.538C403.08 10.23 402.898 9.67467 402.898 8.872V5.05H401.694V4.056H402.898L403.052 2.39H404.074V4.056H406.118V5.05H404.074V8.872C404.074 9.31067 404.163 9.60933 404.34 9.768C404.518 9.91733 404.83 9.992 405.278 9.992H406.006V11H404.942ZM408.326 2.516C408.093 2.516 407.897 2.44133 407.738 2.292C407.589 2.13333 407.514 1.93733 407.514 1.704C407.514 1.48 407.589 1.29333 407.738 1.144C407.897 0.994666 408.093 0.92 408.326 0.92C408.55 0.92 408.742 0.994666 408.9 1.144C409.059 1.29333 409.138 1.48 409.138 1.704C409.138 1.93733 409.059 2.13333 408.9 2.292C408.742 2.44133 408.55 2.516 408.326 2.516ZM407.738 11V4.056H408.914V11H407.738ZM410.962 11V4.056H412.026L412.096 5.302C412.32 4.86333 412.642 4.518 413.062 4.266C413.482 4.014 413.958 3.888 414.49 3.888C415.311 3.888 415.965 4.14 416.45 4.644C416.945 5.13867 417.192 5.904 417.192 6.94V11H416.016V7.066C416.016 5.61933 415.419 4.896 414.224 4.896C413.627 4.896 413.127 5.11533 412.726 5.554C412.334 5.98333 412.138 6.59933 412.138 7.402V11H410.962ZM421.718 8.816C421.326 8.816 420.966 8.76467 420.64 8.662L419.94 9.32C420.042 9.39467 420.168 9.46 420.318 9.516C420.476 9.56267 420.7 9.60933 420.99 9.656C421.279 9.69333 421.685 9.73533 422.208 9.782C423.141 9.84733 423.808 10.062 424.21 10.426C424.611 10.79 424.812 11.266 424.812 11.854C424.812 12.2553 424.7 12.638 424.476 13.002C424.261 13.366 423.925 13.6647 423.468 13.898C423.02 14.1313 422.441 14.248 421.732 14.248C421.106 14.248 420.551 14.164 420.066 13.996C419.58 13.8373 419.202 13.59 418.932 13.254C418.661 12.9273 418.526 12.512 418.526 12.008C418.526 11.7467 418.596 11.462 418.736 11.154C418.876 10.8553 419.137 10.5707 419.52 10.3C419.314 10.216 419.137 10.1273 418.988 10.034C418.848 9.93133 418.717 9.81933 418.596 9.698V9.376L419.786 8.2C419.235 7.73333 418.96 7.11733 418.96 6.352C418.96 5.89467 419.067 5.47933 419.282 5.106C419.496 4.73267 419.809 4.43867 420.22 4.224C420.63 4 421.13 3.888 421.718 3.888C422.119 3.888 422.483 3.944 422.81 4.056H425.372V4.938L424.07 4.994C424.34 5.386 424.476 5.83867 424.476 6.352C424.476 6.80933 424.364 7.22467 424.14 7.598C423.925 7.97133 423.612 8.27 423.202 8.494C422.8 8.70867 422.306 8.816 421.718 8.816ZM421.718 7.85C422.212 7.85 422.604 7.724 422.894 7.472C423.192 7.21067 423.342 6.83733 423.342 6.352C423.342 5.876 423.192 5.512 422.894 5.26C422.604 4.99867 422.212 4.868 421.718 4.868C421.214 4.868 420.812 4.99867 420.514 5.26C420.224 5.512 420.08 5.876 420.08 6.352C420.08 6.83733 420.224 7.21067 420.514 7.472C420.812 7.724 421.214 7.85 421.718 7.85ZM419.674 11.896C419.674 12.3627 419.87 12.708 420.262 12.932C420.654 13.1653 421.144 13.282 421.732 13.282C422.31 13.282 422.772 13.156 423.118 12.904C423.472 12.652 423.65 12.316 423.65 11.896C423.65 11.5973 423.528 11.336 423.286 11.112C423.043 10.8973 422.595 10.7713 421.942 10.734C421.428 10.6967 420.985 10.65 420.612 10.594C420.229 10.7993 419.977 11.0187 419.856 11.252C419.734 11.4947 419.674 11.7093 419.674 11.896ZM433.372 11.168C432.7 11.168 432.107 11.0467 431.594 10.804C431.09 10.552 430.693 10.2067 430.404 9.768C430.124 9.32 429.984 8.79267 429.984 8.186C429.984 7.52333 430.175 6.93533 430.558 6.422C430.95 5.89933 431.514 5.48867 432.252 5.19C431.934 4.84467 431.706 4.518 431.566 4.21C431.426 3.89267 431.356 3.552 431.356 3.188C431.356 2.56267 431.575 2.04933 432.014 1.648C432.462 1.23733 433.073 1.032 433.848 1.032C434.352 1.032 434.79 1.13 435.164 1.326C435.537 1.51267 435.826 1.774 436.032 2.11C436.237 2.446 436.33 2.82867 436.312 3.258H435.15C435.159 2.838 435.028 2.52067 434.758 2.306C434.496 2.09133 434.193 1.984 433.848 1.984C433.428 1.984 433.101 2.096 432.868 2.32C432.634 2.544 432.518 2.82867 432.518 3.174C432.518 3.47267 432.597 3.762 432.756 4.042C432.924 4.322 433.171 4.63467 433.498 4.98L436.592 8.102C436.862 7.71 437.156 7.23867 437.474 6.688L437.908 5.932H439.154L438.538 7.024C438.127 7.76133 437.735 8.37733 437.362 8.872L439.476 11H437.992L436.69 9.684C436.195 10.216 435.682 10.5987 435.15 10.832C434.618 11.056 434.025 11.168 433.372 11.168ZM431.16 8.144C431.16 8.72267 431.365 9.20333 431.776 9.586C432.186 9.96867 432.723 10.16 433.386 10.16C433.88 10.16 434.328 10.0667 434.73 9.88C435.14 9.684 435.542 9.36667 435.934 8.928L432.966 5.918C432.35 6.16067 431.892 6.46867 431.594 6.842C431.304 7.21533 431.16 7.64933 431.16 8.144ZM446.728 11V2.166H443.802V1.2H450.83V2.166H447.904V11H446.728ZM451.404 11V4.056H452.468L452.566 5.386C452.78 4.92867 453.107 4.56467 453.546 4.294C453.984 4.02333 454.526 3.888 455.17 3.888V5.12H454.848C454.437 5.12 454.059 5.19467 453.714 5.344C453.368 5.484 453.093 5.72667 452.888 6.072C452.682 6.41733 452.58 6.89333 452.58 7.5V11H451.404ZM458.799 11.168C458.221 11.168 457.74 11.07 457.357 10.874C456.975 10.678 456.69 10.4167 456.503 10.09C456.317 9.76333 456.223 9.40867 456.223 9.026C456.223 8.31667 456.494 7.77067 457.035 7.388C457.577 7.00533 458.314 6.814 459.247 6.814H461.123V6.73C461.123 6.12333 460.965 5.666 460.647 5.358C460.33 5.04067 459.905 4.882 459.373 4.882C458.916 4.882 458.519 4.99867 458.183 5.232C457.857 5.456 457.651 5.78733 457.567 6.226H456.363C456.41 5.722 456.578 5.29733 456.867 4.952C457.166 4.60667 457.535 4.34533 457.973 4.168C458.412 3.98133 458.879 3.888 459.373 3.888C460.344 3.888 461.072 4.14933 461.557 4.672C462.052 5.18533 462.299 5.87133 462.299 6.73V11H461.249L461.179 9.754C460.983 10.146 460.694 10.482 460.311 10.762C459.938 11.0327 459.434 11.168 458.799 11.168ZM458.981 10.174C459.429 10.174 459.812 10.0573 460.129 9.824C460.456 9.59067 460.703 9.28733 460.871 8.914C461.039 8.54067 461.123 8.14867 461.123 7.738V7.724H459.345C458.655 7.724 458.165 7.84533 457.875 8.088C457.595 8.32133 457.455 8.61533 457.455 8.97C457.455 9.334 457.586 9.628 457.847 9.852C458.118 10.0667 458.496 10.174 458.981 10.174ZM464.064 11V4.056H465.128L465.198 5.302C465.422 4.86333 465.744 4.518 466.164 4.266C466.584 4.014 467.06 3.888 467.592 3.888C468.413 3.888 469.066 4.14 469.552 4.644C470.046 5.13867 470.294 5.904 470.294 6.94V11H469.118V7.066C469.118 5.61933 468.52 4.896 467.326 4.896C466.728 4.896 466.229 5.11533 465.828 5.554C465.436 5.98333 465.24 6.59933 465.24 7.402V11H464.064ZM474.735 11.168C473.905 11.168 473.214 10.958 472.663 10.538C472.113 10.118 471.791 9.54867 471.697 8.83H472.901C472.976 9.194 473.167 9.51133 473.475 9.782C473.793 10.0433 474.217 10.174 474.749 10.174C475.244 10.174 475.608 10.0713 475.841 9.866C476.075 9.65133 476.191 9.39933 476.191 9.11C476.191 8.69 476.037 8.41 475.729 8.27C475.431 8.13 475.006 8.004 474.455 7.892C474.082 7.81733 473.709 7.71 473.335 7.57C472.962 7.43 472.649 7.234 472.397 6.982C472.145 6.72067 472.019 6.38 472.019 5.96C472.019 5.35333 472.243 4.85867 472.691 4.476C473.149 4.084 473.765 3.888 474.539 3.888C475.277 3.888 475.879 4.07467 476.345 4.448C476.821 4.812 477.097 5.33467 477.171 6.016H476.009C475.963 5.66133 475.809 5.386 475.547 5.19C475.295 4.98467 474.955 4.882 474.525 4.882C474.105 4.882 473.779 4.97067 473.545 5.148C473.321 5.32533 473.209 5.55867 473.209 5.848C473.209 6.128 473.354 6.34733 473.643 6.506C473.942 6.66467 474.343 6.8 474.847 6.912C475.277 7.00533 475.683 7.122 476.065 7.262C476.457 7.39267 476.775 7.59333 477.017 7.864C477.269 8.12533 477.395 8.508 477.395 9.012C477.405 9.63733 477.167 10.1553 476.681 10.566C476.205 10.9673 475.557 11.168 474.735 11.168ZM479.075 11V0.92H480.251V11H479.075ZM484.489 11.168C483.91 11.168 483.43 11.07 483.047 10.874C482.664 10.678 482.38 10.4167 482.193 10.09C482.006 9.76333 481.913 9.40867 481.913 9.026C481.913 8.31667 482.184 7.77067 482.725 7.388C483.266 7.00533 484.004 6.814 484.937 6.814H486.813V6.73C486.813 6.12333 486.654 5.666 486.337 5.358C486.02 5.04067 485.595 4.882 485.063 4.882C484.606 4.882 484.209 4.99867 483.873 5.232C483.546 5.456 483.341 5.78733 483.257 6.226H482.053C482.1 5.722 482.268 5.29733 482.557 4.952C482.856 4.60667 483.224 4.34533 483.663 4.168C484.102 3.98133 484.568 3.888 485.063 3.888C486.034 3.888 486.762 4.14933 487.247 4.672C487.742 5.18533 487.989 5.87133 487.989 6.73V11H486.939L486.869 9.754C486.673 10.146 486.384 10.482 486.001 10.762C485.628 11.0327 485.124 11.168 484.489 11.168ZM484.671 10.174C485.119 10.174 485.502 10.0573 485.819 9.824C486.146 9.59067 486.393 9.28733 486.561 8.914C486.729 8.54067 486.813 8.14867 486.813 7.738V7.724H485.035C484.344 7.724 483.854 7.84533 483.565 8.088C483.285 8.32133 483.145 8.61533 483.145 8.97C483.145 9.334 483.276 9.628 483.537 9.852C483.808 10.0667 484.186 10.174 484.671 10.174ZM492.306 11C491.671 11 491.172 10.846 490.808 10.538C490.444 10.23 490.262 9.67467 490.262 8.872V5.05H489.058V4.056H490.262L490.416 2.39H491.438V4.056H493.482V5.05H491.438V8.872C491.438 9.31067 491.526 9.60933 491.704 9.768C491.881 9.91733 492.194 9.992 492.642 9.992H493.37V11H492.306ZM495.69 2.516C495.456 2.516 495.26 2.44133 495.102 2.292C494.952 2.13333 494.878 1.93733 494.878 1.704C494.878 1.48 494.952 1.29333 495.102 1.144C495.26 0.994666 495.456 0.92 495.69 0.92C495.914 0.92 496.105 0.994666 496.264 1.144C496.422 1.29333 496.502 1.48 496.502 1.704C496.502 1.93733 496.422 2.13333 496.264 2.292C496.105 2.44133 495.914 2.516 495.69 2.516ZM495.102 11V4.056H496.278V11H495.102ZM501.489 11.168C500.836 11.168 500.248 11.0187 499.725 10.72C499.203 10.4213 498.787 10.0013 498.479 9.46C498.181 8.90933 498.031 8.26533 498.031 7.528C498.031 6.79067 498.185 6.15133 498.493 5.61C498.801 5.05933 499.217 4.63467 499.739 4.336C500.271 4.03733 500.864 3.888 501.517 3.888C502.171 3.888 502.759 4.03733 503.281 4.336C503.804 4.63467 504.215 5.05933 504.513 5.61C504.821 6.15133 504.975 6.79067 504.975 7.528C504.975 8.26533 504.821 8.90933 504.513 9.46C504.205 10.0013 503.785 10.4213 503.253 10.72C502.731 11.0187 502.143 11.168 501.489 11.168ZM501.489 10.16C501.891 10.16 502.264 10.062 502.609 9.866C502.955 9.67 503.235 9.376 503.449 8.984C503.664 8.592 503.771 8.10667 503.771 7.528C503.771 6.94933 503.664 6.464 503.449 6.072C503.244 5.68 502.969 5.386 502.623 5.19C502.278 4.994 501.909 4.896 501.517 4.896C501.116 4.896 500.743 4.994 500.397 5.19C500.052 5.386 499.772 5.68 499.557 6.072C499.343 6.464 499.235 6.94933 499.235 7.528C499.235 8.10667 499.343 8.592 499.557 8.984C499.772 9.376 500.047 9.67 500.383 9.866C500.729 10.062 501.097 10.16 501.489 10.16ZM506.611 11V4.056H507.675L507.745 5.302C507.969 4.86333 508.291 4.518 508.711 4.266C509.131 4.014 509.607 3.888 510.139 3.888C510.96 3.888 511.613 4.14 512.099 4.644C512.593 5.13867 512.841 5.904 512.841 6.94V11H511.665V7.066C511.665 5.61933 511.067 4.896 509.873 4.896C509.275 4.896 508.776 5.11533 508.375 5.554C507.983 5.98333 507.787 6.59933 507.787 7.402V11H506.611ZM550.992 11L547.31 1.2H548.584L551.678 9.754L554.8 1.2H556.046L552.364 11H550.992ZM558.034 2.516C557.8 2.516 557.604 2.44133 557.446 2.292C557.296 2.13333 557.222 1.93733 557.222 1.704C557.222 1.48 557.296 1.29333 557.446 1.144C557.604 0.994666 557.8 0.92 558.034 0.92C558.258 0.92 558.449 0.994666 558.608 1.144C558.766 1.29333 558.846 1.48 558.846 1.704C558.846 1.93733 558.766 2.13333 558.608 2.292C558.449 2.44133 558.258 2.516 558.034 2.516ZM557.446 11V4.056H558.622V11H557.446ZM563.819 11.168C563.128 11.168 562.522 11.0093 561.999 10.692C561.486 10.3747 561.084 9.94067 560.795 9.39C560.515 8.83933 560.375 8.214 560.375 7.514C560.375 6.814 560.52 6.19333 560.809 5.652C561.098 5.10133 561.5 4.672 562.013 4.364C562.526 4.04667 563.133 3.888 563.833 3.888C564.402 3.888 564.906 4.00467 565.345 4.238C565.784 4.47133 566.124 4.798 566.367 5.218V0.92H567.543V11H566.479L566.367 9.852C566.143 10.188 565.821 10.4913 565.401 10.762C564.981 11.0327 564.454 11.168 563.819 11.168ZM563.945 10.146C564.412 10.146 564.822 10.0387 565.177 9.824C565.541 9.6 565.821 9.292 566.017 8.9C566.222 8.508 566.325 8.05067 566.325 7.528C566.325 7.00533 566.222 6.548 566.017 6.156C565.821 5.764 565.541 5.46067 565.177 5.246C564.822 5.022 564.412 4.91 563.945 4.91C563.488 4.91 563.077 5.022 562.713 5.246C562.358 5.46067 562.078 5.764 561.873 6.156C561.677 6.548 561.579 7.00533 561.579 7.528C561.579 8.05067 561.677 8.508 561.873 8.9C562.078 9.292 562.358 9.6 562.713 9.824C563.077 10.0387 563.488 10.146 563.945 10.146ZM572.582 11.168C571.919 11.168 571.331 11.0187 570.818 10.72C570.305 10.412 569.899 9.98733 569.6 9.446C569.311 8.90467 569.166 8.26533 569.166 7.528C569.166 6.8 569.311 6.16533 569.6 5.624C569.889 5.07333 570.291 4.64867 570.804 4.35C571.327 4.042 571.929 3.888 572.61 3.888C573.282 3.888 573.861 4.042 574.346 4.35C574.841 4.64867 575.219 5.04533 575.48 5.54C575.741 6.03467 575.872 6.56667 575.872 7.136C575.872 7.23867 575.867 7.34133 575.858 7.444C575.858 7.54667 575.858 7.66333 575.858 7.794H570.328C570.356 8.326 570.477 8.76933 570.692 9.124C570.916 9.46933 571.191 9.73067 571.518 9.908C571.854 10.0853 572.209 10.174 572.582 10.174C573.067 10.174 573.473 10.062 573.8 9.838C574.127 9.614 574.365 9.31067 574.514 8.928H575.676C575.489 9.572 575.13 10.1087 574.598 10.538C574.075 10.958 573.403 11.168 572.582 11.168ZM572.582 4.882C572.022 4.882 571.523 5.05467 571.084 5.4C570.655 5.736 570.407 6.23067 570.342 6.884H574.71C574.682 6.25867 574.467 5.76867 574.066 5.414C573.665 5.05933 573.17 4.882 572.582 4.882ZM580.595 11.168C579.942 11.168 579.354 11.0187 578.831 10.72C578.308 10.4213 577.893 10.0013 577.585 9.46C577.286 8.90933 577.137 8.26533 577.137 7.528C577.137 6.79067 577.291 6.15133 577.599 5.61C577.907 5.05933 578.322 4.63467 578.845 4.336C579.377 4.03733 579.97 3.888 580.623 3.888C581.276 3.888 581.864 4.03733 582.387 4.336C582.91 4.63467 583.32 5.05933 583.619 5.61C583.927 6.15133 584.081 6.79067 584.081 7.528C584.081 8.26533 583.927 8.90933 583.619 9.46C583.311 10.0013 582.891 10.4213 582.359 10.72C581.836 11.0187 581.248 11.168 580.595 11.168ZM580.595 10.16C580.996 10.16 581.37 10.062 581.715 9.866C582.06 9.67 582.34 9.376 582.555 8.984C582.77 8.592 582.877 8.10667 582.877 7.528C582.877 6.94933 582.77 6.464 582.555 6.072C582.35 5.68 582.074 5.386 581.729 5.19C581.384 4.994 581.015 4.896 580.623 4.896C580.222 4.896 579.848 4.994 579.503 5.19C579.158 5.386 578.878 5.68 578.663 6.072C578.448 6.464 578.341 6.94933 578.341 7.528C578.341 8.10667 578.448 8.592 578.663 8.984C578.878 9.376 579.153 9.67 579.489 9.866C579.834 10.062 580.203 10.16 580.595 10.16ZM592.389 11.168C591.717 11.168 591.124 11.0467 590.611 10.804C590.107 10.552 589.71 10.2067 589.421 9.768C589.141 9.32 589.001 8.79267 589.001 8.186C589.001 7.52333 589.192 6.93533 589.575 6.422C589.967 5.89933 590.532 5.48867 591.269 5.19C590.952 4.84467 590.723 4.518 590.583 4.21C590.443 3.89267 590.373 3.552 590.373 3.188C590.373 2.56267 590.592 2.04933 591.031 1.648C591.479 1.23733 592.09 1.032 592.865 1.032C593.369 1.032 593.808 1.13 594.181 1.326C594.554 1.51267 594.844 1.774 595.049 2.11C595.254 2.446 595.348 2.82867 595.329 3.258H594.167C594.176 2.838 594.046 2.52067 593.775 2.306C593.514 2.09133 593.21 1.984 592.865 1.984C592.445 1.984 592.118 2.096 591.885 2.32C591.652 2.544 591.535 2.82867 591.535 3.174C591.535 3.47267 591.614 3.762 591.773 4.042C591.941 4.322 592.188 4.63467 592.515 4.98L595.609 8.102C595.88 7.71 596.174 7.23867 596.491 6.688L596.925 5.932H598.171L597.555 7.024C597.144 7.76133 596.752 8.37733 596.379 8.872L598.493 11H597.009L595.707 9.684C595.212 10.216 594.699 10.5987 594.167 10.832C593.635 11.056 593.042 11.168 592.389 11.168ZM590.177 8.144C590.177 8.72267 590.382 9.20333 590.793 9.586C591.204 9.96867 591.74 10.16 592.403 10.16C592.898 10.16 593.346 10.0667 593.747 9.88C594.158 9.684 594.559 9.36667 594.951 8.928L591.983 5.918C591.367 6.16067 590.91 6.46867 590.611 6.842C590.322 7.21533 590.177 7.64933 590.177 8.144ZM602.834 11L606.446 1.2H607.692L611.29 11H610.044L609.148 8.48H604.976L604.066 11H602.834ZM605.326 7.528H608.798L607.062 2.684L605.326 7.528ZM612.677 11V4.056H613.741L613.811 5.302C614.035 4.86333 614.357 4.518 614.777 4.266C615.197 4.014 615.673 3.888 616.205 3.888C617.026 3.888 617.68 4.14 618.165 4.644C618.66 5.13867 618.907 5.904 618.907 6.94V11H617.731V7.066C617.731 5.61933 617.134 4.896 615.939 4.896C615.342 4.896 614.842 5.11533 614.441 5.554C614.049 5.98333 613.853 6.59933 613.853 7.402V11H612.677ZM621.403 2.516C621.169 2.516 620.973 2.44133 620.815 2.292C620.665 2.13333 620.591 1.93733 620.591 1.704C620.591 1.48 620.665 1.29333 620.815 1.144C620.973 0.994666 621.169 0.92 621.403 0.92C621.627 0.92 621.818 0.994666 621.977 1.144C622.135 1.29333 622.215 1.48 622.215 1.704C622.215 1.93733 622.135 2.13333 621.977 2.292C621.818 2.44133 621.627 2.516 621.403 2.516ZM620.815 11V4.056H621.991V11H620.815ZM624.038 11V4.056H625.102L625.186 5.064C625.41 4.69067 625.709 4.40133 626.082 4.196C626.456 3.99067 626.876 3.888 627.342 3.888C627.893 3.888 628.364 4 628.756 4.224C629.158 4.448 629.466 4.78867 629.68 5.246C629.923 4.826 630.254 4.49467 630.674 4.252C631.104 4.00933 631.566 3.888 632.06 3.888C632.891 3.888 633.554 4.14 634.048 4.644C634.543 5.13867 634.79 5.904 634.79 6.94V11H633.628V7.066C633.628 6.34733 633.484 5.806 633.194 5.442C632.905 5.078 632.49 4.896 631.948 4.896C631.388 4.896 630.922 5.11533 630.548 5.554C630.184 5.98333 630.002 6.59933 630.002 7.402V11H628.826V7.066C628.826 6.34733 628.682 5.806 628.392 5.442C628.103 5.078 627.688 4.896 627.146 4.896C626.596 4.896 626.134 5.11533 625.76 5.554C625.396 5.98333 625.214 6.59933 625.214 7.402V11H624.038ZM638.872 11.168C638.293 11.168 637.812 11.07 637.43 10.874C637.047 10.678 636.762 10.4167 636.576 10.09C636.389 9.76333 636.296 9.40867 636.296 9.026C636.296 8.31667 636.566 7.77067 637.108 7.388C637.649 7.00533 638.386 6.814 639.32 6.814H641.196V6.73C641.196 6.12333 641.037 5.666 640.72 5.358C640.402 5.04067 639.978 4.882 639.446 4.882C638.988 4.882 638.592 4.99867 638.256 5.232C637.929 5.456 637.724 5.78733 637.64 6.226H636.436C636.482 5.722 636.65 5.29733 636.94 4.952C637.238 4.60667 637.607 4.34533 638.046 4.168C638.484 3.98133 638.951 3.888 639.446 3.888C640.416 3.888 641.144 4.14933 641.63 4.672C642.124 5.18533 642.372 5.87133 642.372 6.73V11H641.322L641.252 9.754C641.056 10.146 640.766 10.482 640.384 10.762C640.01 11.0327 639.506 11.168 638.872 11.168ZM639.054 10.174C639.502 10.174 639.884 10.0573 640.202 9.824C640.528 9.59067 640.776 9.28733 640.944 8.914C641.112 8.54067 641.196 8.14867 641.196 7.738V7.724H639.418C638.727 7.724 638.237 7.84533 637.948 8.088C637.668 8.32133 637.528 8.61533 637.528 8.97C637.528 9.334 637.658 9.628 637.92 9.852C638.19 10.0667 638.568 10.174 639.054 10.174ZM646.689 11C646.054 11 645.555 10.846 645.191 10.538C644.827 10.23 644.645 9.67467 644.645 8.872V5.05H643.441V4.056H644.645L644.799 2.39H645.821V4.056H647.865V5.05H645.821V8.872C645.821 9.31067 645.909 9.60933 646.087 9.768C646.264 9.91733 646.577 9.992 647.025 9.992H647.753V11H646.689ZM650.073 2.516C649.839 2.516 649.643 2.44133 649.485 2.292C649.335 2.13333 649.261 1.93733 649.261 1.704C649.261 1.48 649.335 1.29333 649.485 1.144C649.643 0.994666 649.839 0.92 650.073 0.92C650.297 0.92 650.488 0.994666 650.647 1.144C650.805 1.29333 650.885 1.48 650.885 1.704C650.885 1.93733 650.805 2.13333 650.647 2.292C650.488 2.44133 650.297 2.516 650.073 2.516ZM649.485 11V4.056H650.661V11H649.485ZM655.872 11.168C655.219 11.168 654.631 11.0187 654.108 10.72C653.586 10.4213 653.17 10.0013 652.862 9.46C652.564 8.90933 652.414 8.26533 652.414 7.528C652.414 6.79067 652.568 6.15133 652.876 5.61C653.184 5.05933 653.6 4.63467 654.122 4.336C654.654 4.03733 655.247 3.888 655.9 3.888C656.554 3.888 657.142 4.03733 657.664 4.336C658.187 4.63467 658.598 5.05933 658.896 5.61C659.204 6.15133 659.358 6.79067 659.358 7.528C659.358 8.26533 659.204 8.90933 658.896 9.46C658.588 10.0013 658.168 10.4213 657.636 10.72C657.114 11.0187 656.526 11.168 655.872 11.168ZM655.872 10.16C656.274 10.16 656.647 10.062 656.992 9.866C657.338 9.67 657.618 9.376 657.832 8.984C658.047 8.592 658.154 8.10667 658.154 7.528C658.154 6.94933 658.047 6.464 657.832 6.072C657.627 5.68 657.352 5.386 657.006 5.19C656.661 4.994 656.292 4.896 655.9 4.896C655.499 4.896 655.126 4.994 654.78 5.19C654.435 5.386 654.155 5.68 653.94 6.072C653.726 6.464 653.618 6.94933 653.618 7.528C653.618 8.10667 653.726 8.592 653.94 8.984C654.155 9.376 654.43 9.67 654.766 9.866C655.112 10.062 655.48 10.16 655.872 10.16ZM660.993 11V4.056H662.057L662.127 5.302C662.351 4.86333 662.673 4.518 663.093 4.266C663.513 4.014 663.989 3.888 664.521 3.888C665.343 3.888 665.996 4.14 666.481 4.644C666.976 5.13867 667.223 5.904 667.223 6.94V11H666.047V7.066C666.047 5.61933 665.45 4.896 664.255 4.896C663.658 4.896 663.159 5.11533 662.757 5.554C662.365 5.98333 662.169 6.59933 662.169 7.402V11H660.993ZM702.421 11V1.2H703.793L707.321 8.032L710.821 1.2H712.207V11H711.031V3.3L707.755 9.6H706.873L703.597 3.314V11H702.421ZM716.738 11.168C715.917 11.168 715.264 10.9207 714.778 10.426C714.293 9.922 714.05 9.152 714.05 8.116V4.056H715.226V7.99C715.226 9.43667 715.819 10.16 717.004 10.16C717.611 10.16 718.11 9.94533 718.502 9.516C718.904 9.07733 719.104 8.45667 719.104 7.654V4.056H720.28V11H719.216L719.132 9.754C718.918 10.1927 718.596 10.538 718.166 10.79C717.746 11.042 717.27 11.168 716.738 11.168ZM724.876 11.168C724.045 11.168 723.355 10.958 722.804 10.538C722.253 10.118 721.931 9.54867 721.838 8.83H723.042C723.117 9.194 723.308 9.51133 723.616 9.782C723.933 10.0433 724.358 10.174 724.89 10.174C725.385 10.174 725.749 10.0713 725.982 9.866C726.215 9.65133 726.332 9.39933 726.332 9.11C726.332 8.69 726.178 8.41 725.87 8.27C725.571 8.13 725.147 8.004 724.596 7.892C724.223 7.81733 723.849 7.71 723.476 7.57C723.103 7.43 722.79 7.234 722.538 6.982C722.286 6.72067 722.16 6.38 722.16 5.96C722.16 5.35333 722.384 4.85867 722.832 4.476C723.289 4.084 723.905 3.888 724.68 3.888C725.417 3.888 726.019 4.07467 726.486 4.448C726.962 4.812 727.237 5.33467 727.312 6.016H726.15C726.103 5.66133 725.949 5.386 725.688 5.19C725.436 4.98467 725.095 4.882 724.666 4.882C724.246 4.882 723.919 4.97067 723.686 5.148C723.462 5.32533 723.35 5.55867 723.35 5.848C723.35 6.128 723.495 6.34733 723.784 6.506C724.083 6.66467 724.484 6.8 724.988 6.912C725.417 7.00533 725.823 7.122 726.206 7.262C726.598 7.39267 726.915 7.59333 727.158 7.864C727.41 8.12533 727.536 8.508 727.536 9.012C727.545 9.63733 727.307 10.1553 726.822 10.566C726.346 10.9673 725.697 11.168 724.876 11.168ZM729.93 2.516C729.697 2.516 729.501 2.44133 729.342 2.292C729.193 2.13333 729.118 1.93733 729.118 1.704C729.118 1.48 729.193 1.29333 729.342 1.144C729.501 0.994666 729.697 0.92 729.93 0.92C730.154 0.92 730.345 0.994666 730.504 1.144C730.663 1.29333 730.742 1.48 730.742 1.704C730.742 1.93733 730.663 2.13333 730.504 2.292C730.345 2.44133 730.154 2.516 729.93 2.516ZM729.342 11V4.056H730.518V11H729.342ZM735.758 11.168C735.095 11.168 734.498 11.0187 733.966 10.72C733.443 10.412 733.028 9.98733 732.72 9.446C732.421 8.89533 732.272 8.256 732.272 7.528C732.272 6.8 732.421 6.16533 732.72 5.624C733.028 5.07333 733.443 4.64867 733.966 4.35C734.498 4.042 735.095 3.888 735.758 3.888C736.579 3.888 737.27 4.10267 737.83 4.532C738.399 4.96133 738.758 5.53533 738.908 6.254H737.704C737.61 5.82467 737.382 5.49333 737.018 5.26C736.654 5.01733 736.229 4.896 735.744 4.896C735.352 4.896 734.983 4.994 734.638 5.19C734.292 5.386 734.012 5.68 733.798 6.072C733.583 6.464 733.476 6.94933 733.476 7.528C733.476 8.10667 733.583 8.592 733.798 8.984C734.012 9.376 734.292 9.67467 734.638 9.88C734.983 10.076 735.352 10.174 735.744 10.174C736.229 10.174 736.654 10.0573 737.018 9.824C737.382 9.58133 737.61 9.24067 737.704 8.802H738.908C738.768 9.502 738.413 10.0713 737.844 10.51C737.274 10.9487 736.579 11.168 735.758 11.168ZM747.223 11.168C746.551 11.168 745.958 11.0467 745.445 10.804C744.941 10.552 744.544 10.2067 744.255 9.768C743.975 9.32 743.835 8.79267 743.835 8.186C743.835 7.52333 744.026 6.93533 744.409 6.422C744.801 5.89933 745.366 5.48867 746.103 5.19C745.786 4.84467 745.557 4.518 745.417 4.21C745.277 3.89267 745.207 3.552 745.207 3.188C745.207 2.56267 745.426 2.04933 745.865 1.648C746.313 1.23733 746.924 1.032 747.699 1.032C748.203 1.032 748.642 1.13 749.015 1.326C749.388 1.51267 749.678 1.774 749.883 2.11C750.088 2.446 750.182 2.82867 750.163 3.258H749.001C749.01 2.838 748.88 2.52067 748.609 2.306C748.348 2.09133 748.044 1.984 747.699 1.984C747.279 1.984 746.952 2.096 746.719 2.32C746.486 2.544 746.369 2.82867 746.369 3.174C746.369 3.47267 746.448 3.762 746.607 4.042C746.775 4.322 747.022 4.63467 747.349 4.98L750.443 8.102C750.714 7.71 751.008 7.23867 751.325 6.688L751.759 5.932H753.005L752.389 7.024C751.978 7.76133 751.586 8.37733 751.213 8.872L753.327 11H751.843L750.541 9.684C750.046 10.216 749.533 10.5987 749.001 10.832C748.469 11.056 747.876 11.168 747.223 11.168ZM745.011 8.144C745.011 8.72267 745.216 9.20333 745.627 9.586C746.038 9.96867 746.574 10.16 747.237 10.16C747.732 10.16 748.18 10.0667 748.581 9.88C748.992 9.684 749.393 9.36667 749.785 8.928L746.817 5.918C746.201 6.16067 745.744 6.46867 745.445 6.842C745.156 7.21533 745.011 7.64933 745.011 8.144ZM757.668 11L761.28 1.2H762.526L766.124 11H764.878L763.982 8.48H759.81L758.9 11H757.668ZM760.16 7.528H763.632L761.896 2.684L760.16 7.528ZM769.895 11.168C769.073 11.168 768.42 10.9207 767.935 10.426C767.449 9.922 767.207 9.152 767.207 8.116V4.056H768.383V7.99C768.383 9.43667 768.975 10.16 770.161 10.16C770.767 10.16 771.267 9.94533 771.659 9.516C772.06 9.07733 772.261 8.45667 772.261 7.654V4.056H773.437V11H772.373L772.289 9.754C772.074 10.1927 771.752 10.538 771.323 10.79C770.903 11.042 770.427 11.168 769.895 11.168ZM778.522 11.168C777.832 11.168 777.225 11.0093 776.702 10.692C776.189 10.3747 775.788 9.94067 775.498 9.39C775.218 8.83933 775.078 8.214 775.078 7.514C775.078 6.814 775.223 6.19333 775.512 5.652C775.802 5.10133 776.203 4.672 776.716 4.364C777.23 4.04667 777.836 3.888 778.536 3.888C779.106 3.888 779.61 4.00467 780.048 4.238C780.487 4.47133 780.828 4.798 781.07 5.218V0.92H782.246V11H781.182L781.07 9.852C780.846 10.188 780.524 10.4913 780.104 10.762C779.684 11.0327 779.157 11.168 778.522 11.168ZM778.648 10.146C779.115 10.146 779.526 10.0387 779.88 9.824C780.244 9.6 780.524 9.292 780.72 8.9C780.926 8.508 781.028 8.05067 781.028 7.528C781.028 7.00533 780.926 6.548 780.72 6.156C780.524 5.764 780.244 5.46067 779.88 5.246C779.526 5.022 779.115 4.91 778.648 4.91C778.191 4.91 777.78 5.022 777.416 5.246C777.062 5.46067 776.782 5.764 776.576 6.156C776.38 6.548 776.282 7.00533 776.282 7.528C776.282 8.05067 776.38 8.508 776.576 8.9C776.782 9.292 777.062 9.6 777.416 9.824C777.78 10.0387 778.191 10.146 778.648 10.146ZM784.877 2.516C784.644 2.516 784.448 2.44133 784.289 2.292C784.14 2.13333 784.065 1.93733 784.065 1.704C784.065 1.48 784.14 1.29333 784.289 1.144C784.448 0.994666 784.644 0.92 784.877 0.92C785.101 0.92 785.293 0.994666 785.451 1.144C785.61 1.29333 785.689 1.48 785.689 1.704C785.689 1.93733 785.61 2.13333 785.451 2.292C785.293 2.44133 785.101 2.516 784.877 2.516ZM784.289 11V4.056H785.465V11H784.289ZM790.677 11.168C790.024 11.168 789.436 11.0187 788.913 10.72C788.39 10.4213 787.975 10.0013 787.667 9.46C787.368 8.90933 787.219 8.26533 787.219 7.528C787.219 6.79067 787.373 6.15133 787.681 5.61C787.989 5.05933 788.404 4.63467 788.927 4.336C789.459 4.03733 790.052 3.888 790.705 3.888C791.358 3.888 791.946 4.03733 792.469 4.336C792.992 4.63467 793.402 5.05933 793.701 5.61C794.009 6.15133 794.163 6.79067 794.163 7.528C794.163 8.26533 794.009 8.90933 793.701 9.46C793.393 10.0013 792.973 10.4213 792.441 10.72C791.918 11.0187 791.33 11.168 790.677 11.168ZM790.677 10.16C791.078 10.16 791.452 10.062 791.797 9.866C792.142 9.67 792.422 9.376 792.637 8.984C792.852 8.592 792.959 8.10667 792.959 7.528C792.959 6.94933 792.852 6.464 792.637 6.072C792.432 5.68 792.156 5.386 791.811 5.19C791.466 4.994 791.097 4.896 790.705 4.896C790.304 4.896 789.93 4.994 789.585 5.19C789.24 5.386 788.96 5.68 788.745 6.072C788.53 6.464 788.423 6.94933 788.423 7.528C788.423 8.10667 788.53 8.592 788.745 8.984C788.96 9.376 789.235 9.67 789.571 9.866C789.916 10.062 790.285 10.16 790.677 10.16ZM829.214 11V1.2H832.434C833.199 1.2 833.829 1.326 834.324 1.578C834.818 1.83 835.182 2.17067 835.416 2.6C835.658 3.02933 835.78 3.51467 835.78 4.056C835.78 4.588 835.663 5.06867 835.43 5.498C835.196 5.92733 834.832 6.27267 834.338 6.534C833.843 6.786 833.208 6.912 832.434 6.912H830.39V11H829.214ZM830.39 5.918H832.406C833.19 5.918 833.745 5.75467 834.072 5.428C834.408 5.092 834.576 4.63467 834.576 4.056C834.576 3.468 834.408 3.01067 834.072 2.684C833.745 2.348 833.19 2.18 832.406 2.18H830.39V5.918ZM837.251 11V4.056H838.315L838.413 5.386C838.628 4.92867 838.954 4.56467 839.393 4.294C839.832 4.02333 840.373 3.888 841.017 3.888V5.12H840.695C840.284 5.12 839.906 5.19467 839.561 5.344C839.216 5.484 838.94 5.72667 838.735 6.072C838.53 6.41733 838.427 6.89333 838.427 7.5V11H837.251ZM845.241 11.168C844.588 11.168 844 11.0187 843.477 10.72C842.955 10.4213 842.539 10.0013 842.231 9.46C841.933 8.90933 841.783 8.26533 841.783 7.528C841.783 6.79067 841.937 6.15133 842.245 5.61C842.553 5.05933 842.969 4.63467 843.491 4.336C844.023 4.03733 844.616 3.888 845.269 3.888C845.923 3.888 846.511 4.03733 847.033 4.336C847.556 4.63467 847.967 5.05933 848.265 5.61C848.573 6.15133 848.727 6.79067 848.727 7.528C848.727 8.26533 848.573 8.90933 848.265 9.46C847.957 10.0013 847.537 10.4213 847.005 10.72C846.483 11.0187 845.895 11.168 845.241 11.168ZM845.241 10.16C845.643 10.16 846.016 10.062 846.361 9.866C846.707 9.67 846.987 9.376 847.201 8.984C847.416 8.592 847.523 8.10667 847.523 7.528C847.523 6.94933 847.416 6.464 847.201 6.072C846.996 5.68 846.721 5.386 846.375 5.19C846.03 4.994 845.661 4.896 845.269 4.896C844.868 4.896 844.495 4.994 844.149 5.19C843.804 5.386 843.524 5.68 843.309 6.072C843.095 6.464 842.987 6.94933 842.987 7.528C842.987 8.10667 843.095 8.592 843.309 8.984C843.524 9.376 843.799 9.67 844.135 9.866C844.481 10.062 844.849 10.16 845.241 10.16ZM852.806 8.816C852.414 8.816 852.054 8.76467 851.728 8.662L851.028 9.32C851.13 9.39467 851.256 9.46 851.406 9.516C851.564 9.56267 851.788 9.60933 852.078 9.656C852.367 9.69333 852.773 9.73533 853.296 9.782C854.229 9.84733 854.896 10.062 855.298 10.426C855.699 10.79 855.9 11.266 855.9 11.854C855.9 12.2553 855.788 12.638 855.564 13.002C855.349 13.366 855.013 13.6647 854.556 13.898C854.108 14.1313 853.529 14.248 852.82 14.248C852.194 14.248 851.639 14.164 851.154 13.996C850.668 13.8373 850.29 13.59 850.02 13.254C849.749 12.9273 849.614 12.512 849.614 12.008C849.614 11.7467 849.684 11.462 849.824 11.154C849.964 10.8553 850.225 10.5707 850.608 10.3C850.402 10.216 850.225 10.1273 850.076 10.034C849.936 9.93133 849.805 9.81933 849.684 9.698V9.376L850.874 8.2C850.323 7.73333 850.048 7.11733 850.048 6.352C850.048 5.89467 850.155 5.47933 850.37 5.106C850.584 4.73267 850.897 4.43867 851.308 4.224C851.718 4 852.218 3.888 852.806 3.888C853.207 3.888 853.571 3.944 853.898 4.056H856.46V4.938L855.158 4.994C855.428 5.386 855.564 5.83867 855.564 6.352C855.564 6.80933 855.452 7.22467 855.228 7.598C855.013 7.97133 854.7 8.27 854.29 8.494C853.888 8.70867 853.394 8.816 852.806 8.816ZM852.806 7.85C853.3 7.85 853.692 7.724 853.982 7.472C854.28 7.21067 854.43 6.83733 854.43 6.352C854.43 5.876 854.28 5.512 853.982 5.26C853.692 4.99867 853.3 4.868 852.806 4.868C852.302 4.868 851.9 4.99867 851.602 5.26C851.312 5.512 851.168 5.876 851.168 6.352C851.168 6.83733 851.312 7.21067 851.602 7.472C851.9 7.724 852.302 7.85 852.806 7.85ZM850.762 11.896C850.762 12.3627 850.958 12.708 851.35 12.932C851.742 13.1653 852.232 13.282 852.82 13.282C853.398 13.282 853.86 13.156 854.206 12.904C854.56 12.652 854.738 12.316 854.738 11.896C854.738 11.5973 854.616 11.336 854.374 11.112C854.131 10.8973 853.683 10.7713 853.03 10.734C852.516 10.6967 852.073 10.65 851.7 10.594C851.317 10.7993 851.065 11.0187 850.944 11.252C850.822 11.4947 850.762 11.7093 850.762 11.896ZM857.786 11V4.056H858.85L858.948 5.386C859.163 4.92867 859.49 4.56467 859.928 4.294C860.367 4.02333 860.908 3.888 861.552 3.888V5.12H861.23C860.82 5.12 860.442 5.19467 860.096 5.344C859.751 5.484 859.476 5.72667 859.27 6.072C859.065 6.41733 858.962 6.89333 858.962 7.5V11H857.786ZM865.182 11.168C864.604 11.168 864.123 11.07 863.74 10.874C863.358 10.678 863.073 10.4167 862.886 10.09C862.7 9.76333 862.606 9.40867 862.606 9.026C862.606 8.31667 862.877 7.77067 863.418 7.388C863.96 7.00533 864.697 6.814 865.63 6.814H867.506V6.73C867.506 6.12333 867.348 5.666 867.03 5.358C866.713 5.04067 866.288 4.882 865.756 4.882C865.299 4.882 864.902 4.99867 864.566 5.232C864.24 5.456 864.034 5.78733 863.95 6.226H862.746C862.793 5.722 862.961 5.29733 863.25 4.952C863.549 4.60667 863.918 4.34533 864.356 4.168C864.795 3.98133 865.262 3.888 865.756 3.888C866.727 3.888 867.455 4.14933 867.94 4.672C868.435 5.18533 868.682 5.87133 868.682 6.73V11H867.632L867.562 9.754C867.366 10.146 867.077 10.482 866.694 10.762C866.321 11.0327 865.817 11.168 865.182 11.168ZM865.364 10.174C865.812 10.174 866.195 10.0573 866.512 9.824C866.839 9.59067 867.086 9.28733 867.254 8.914C867.422 8.54067 867.506 8.14867 867.506 7.738V7.724H865.728C865.038 7.724 864.548 7.84533 864.258 8.088C863.978 8.32133 863.838 8.61533 863.838 8.97C863.838 9.334 863.969 9.628 864.23 9.852C864.501 10.0667 864.879 10.174 865.364 10.174ZM870.446 11V4.056H871.51L871.594 5.064C871.818 4.69067 872.117 4.40133 872.49 4.196C872.864 3.99067 873.284 3.888 873.75 3.888C874.301 3.888 874.772 4 875.164 4.224C875.566 4.448 875.874 4.78867 876.088 5.246C876.331 4.826 876.662 4.49467 877.082 4.252C877.512 4.00933 877.974 3.888 878.468 3.888C879.299 3.888 879.962 4.14 880.456 4.644C880.951 5.13867 881.198 5.904 881.198 6.94V11H880.036V7.066C880.036 6.34733 879.892 5.806 879.602 5.442C879.313 5.078 878.898 4.896 878.356 4.896C877.796 4.896 877.33 5.11533 876.956 5.554C876.592 5.98333 876.41 6.59933 876.41 7.402V11H875.234V7.066C875.234 6.34733 875.09 5.806 874.8 5.442C874.511 5.078 874.096 4.896 873.554 4.896C873.004 4.896 872.542 5.11533 872.168 5.554C871.804 5.98333 871.622 6.59933 871.622 7.402V11H870.446ZM882.97 11V4.056H884.034L884.118 5.064C884.342 4.69067 884.641 4.40133 885.014 4.196C885.387 3.99067 885.807 3.888 886.274 3.888C886.825 3.888 887.296 4 887.688 4.224C888.089 4.448 888.397 4.78867 888.612 5.246C888.855 4.826 889.186 4.49467 889.606 4.252C890.035 4.00933 890.497 3.888 890.992 3.888C891.823 3.888 892.485 4.14 892.98 4.644C893.475 5.13867 893.722 5.904 893.722 6.94V11H892.56V7.066C892.56 6.34733 892.415 5.806 892.126 5.442C891.837 5.078 891.421 4.896 890.88 4.896C890.32 4.896 889.853 5.11533 889.48 5.554C889.116 5.98333 888.934 6.59933 888.934 7.402V11H887.758V7.066C887.758 6.34733 887.613 5.806 887.324 5.442C887.035 5.078 886.619 4.896 886.078 4.896C885.527 4.896 885.065 5.11533 884.692 5.554C884.328 5.98333 884.146 6.59933 884.146 7.402V11H882.97ZM896.207 2.516C895.974 2.516 895.778 2.44133 895.619 2.292C895.47 2.13333 895.395 1.93733 895.395 1.704C895.395 1.48 895.47 1.29333 895.619 1.144C895.778 0.994666 895.974 0.92 896.207 0.92C896.431 0.92 896.623 0.994666 896.781 1.144C896.94 1.29333 897.019 1.48 897.019 1.704C897.019 1.93733 896.94 2.13333 896.781 2.292C896.623 2.44133 896.431 2.516 896.207 2.516ZM895.619 11V4.056H896.795V11H895.619ZM898.843 11V4.056H899.907L899.977 5.302C900.201 4.86333 900.523 4.518 900.943 4.266C901.363 4.014 901.839 3.888 902.371 3.888C903.192 3.888 903.846 4.14 904.331 4.644C904.826 5.13867 905.073 5.904 905.073 6.94V11H903.897V7.066C903.897 5.61933 903.3 4.896 902.105 4.896C901.508 4.896 901.008 5.11533 900.607 5.554C900.215 5.98333 900.019 6.59933 900.019 7.402V11H898.843ZM909.599 8.816C909.207 8.816 908.847 8.76467 908.521 8.662L907.821 9.32C907.923 9.39467 908.049 9.46 908.199 9.516C908.357 9.56267 908.581 9.60933 908.871 9.656C909.16 9.69333 909.566 9.73533 910.089 9.782C911.022 9.84733 911.689 10.062 912.091 10.426C912.492 10.79 912.693 11.266 912.693 11.854C912.693 12.2553 912.581 12.638 912.357 13.002C912.142 13.366 911.806 13.6647 911.349 13.898C910.901 14.1313 910.322 14.248 909.613 14.248C908.987 14.248 908.432 14.164 907.947 13.996C907.461 13.8373 907.083 13.59 906.813 13.254C906.542 12.9273 906.407 12.512 906.407 12.008C906.407 11.7467 906.477 11.462 906.617 11.154C906.757 10.8553 907.018 10.5707 907.401 10.3C907.195 10.216 907.018 10.1273 906.869 10.034C906.729 9.93133 906.598 9.81933 906.477 9.698V9.376L907.667 8.2C907.116 7.73333 906.841 7.11733 906.841 6.352C906.841 5.89467 906.948 5.47933 907.163 5.106C907.377 4.73267 907.69 4.43867 908.101 4.224C908.511 4 909.011 3.888 909.599 3.888C910 3.888 910.364 3.944 910.691 4.056H913.253V4.938L911.951 4.994C912.221 5.386 912.357 5.83867 912.357 6.352C912.357 6.80933 912.245 7.22467 912.021 7.598C911.806 7.97133 911.493 8.27 911.083 8.494C910.681 8.70867 910.187 8.816 909.599 8.816ZM909.599 7.85C910.093 7.85 910.485 7.724 910.775 7.472C911.073 7.21067 911.223 6.83733 911.223 6.352C911.223 5.876 911.073 5.512 910.775 5.26C910.485 4.99867 910.093 4.868 909.599 4.868C909.095 4.868 908.693 4.99867 908.395 5.26C908.105 5.512 907.961 5.876 907.961 6.352C907.961 6.83733 908.105 7.21067 908.395 7.472C908.693 7.724 909.095 7.85 909.599 7.85ZM907.555 11.896C907.555 12.3627 907.751 12.708 908.143 12.932C908.535 13.1653 909.025 13.282 909.613 13.282C910.191 13.282 910.653 13.156 910.999 12.904C911.353 12.652 911.531 12.316 911.531 11.896C911.531 11.5973 911.409 11.336 911.167 11.112C910.924 10.8973 910.476 10.7713 909.823 10.734C909.309 10.6967 908.866 10.65 908.493 10.594C908.11 10.7993 907.858 11.0187 907.737 11.252C907.615 11.4947 907.555 11.7093 907.555 11.896ZM921.252 11.168C920.58 11.168 919.988 11.0467 919.474 10.804C918.97 10.552 918.574 10.2067 918.284 9.768C918.004 9.32 917.864 8.79267 917.864 8.186C917.864 7.52333 918.056 6.93533 918.438 6.422C918.83 5.89933 919.395 5.48867 920.132 5.19C919.815 4.84467 919.586 4.518 919.446 4.21C919.306 3.89267 919.236 3.552 919.236 3.188C919.236 2.56267 919.456 2.04933 919.894 1.648C920.342 1.23733 920.954 1.032 921.728 1.032C922.232 1.032 922.671 1.13 923.044 1.326C923.418 1.51267 923.707 1.774 923.912 2.11C924.118 2.446 924.211 2.82867 924.192 3.258H923.03C923.04 2.838 922.909 2.52067 922.638 2.306C922.377 2.09133 922.074 1.984 921.728 1.984C921.308 1.984 920.982 2.096 920.748 2.32C920.515 2.544 920.398 2.82867 920.398 3.174C920.398 3.47267 920.478 3.762 920.636 4.042C920.804 4.322 921.052 4.63467 921.378 4.98L924.472 8.102C924.743 7.71 925.037 7.23867 925.354 6.688L925.788 5.932H927.034L926.418 7.024C926.008 7.76133 925.616 8.37733 925.242 8.872L927.356 11H925.872L924.57 9.684C924.076 10.216 923.562 10.5987 923.03 10.832C922.498 11.056 921.906 11.168 921.252 11.168ZM919.04 8.144C919.04 8.72267 919.246 9.20333 919.656 9.586C920.067 9.96867 920.604 10.16 921.266 10.16C921.761 10.16 922.209 10.0667 922.61 9.88C923.021 9.684 923.422 9.36667 923.814 8.928L920.846 5.918C920.23 6.16067 919.773 6.46867 919.474 6.842C919.185 7.21533 919.04 7.64933 919.04 8.144ZM934.609 11V2.166H931.683V1.2H938.711V2.166H935.785V11H934.609ZM941.942 11.168C941.279 11.168 940.691 11.0187 940.178 10.72C939.664 10.412 939.258 9.98733 938.96 9.446C938.67 8.90467 938.526 8.26533 938.526 7.528C938.526 6.8 938.67 6.16533 938.96 5.624C939.249 5.07333 939.65 4.64867 940.164 4.35C940.686 4.042 941.288 3.888 941.97 3.888C942.642 3.888 943.22 4.042 943.706 4.35C944.2 4.64867 944.578 5.04533 944.84 5.54C945.101 6.03467 945.232 6.56667 945.232 7.136C945.232 7.23867 945.227 7.34133 945.218 7.444C945.218 7.54667 945.218 7.66333 945.218 7.794H939.688C939.716 8.326 939.837 8.76933 940.052 9.124C940.276 9.46933 940.551 9.73067 940.878 9.908C941.214 10.0853 941.568 10.174 941.942 10.174C942.427 10.174 942.833 10.062 943.16 9.838C943.486 9.614 943.724 9.31067 943.874 8.928H945.036C944.849 9.572 944.49 10.1087 943.958 10.538C943.435 10.958 942.763 11.168 941.942 11.168ZM941.942 4.882C941.382 4.882 940.882 5.05467 940.444 5.4C940.014 5.736 939.767 6.23067 939.702 6.884H944.07C944.042 6.25867 943.827 5.76867 943.426 5.414C943.024 5.05933 942.53 4.882 941.942 4.882ZM949.982 11.168C949.32 11.168 948.722 11.0187 948.19 10.72C947.668 10.412 947.252 9.98733 946.944 9.446C946.646 8.89533 946.496 8.256 946.496 7.528C946.496 6.8 946.646 6.16533 946.944 5.624C947.252 5.07333 947.668 4.64867 948.19 4.35C948.722 4.042 949.32 3.888 949.982 3.888C950.804 3.888 951.494 4.10267 952.054 4.532C952.624 4.96133 952.983 5.53533 953.132 6.254H951.928C951.835 5.82467 951.606 5.49333 951.242 5.26C950.878 5.01733 950.454 4.896 949.968 4.896C949.576 4.896 949.208 4.994 948.862 5.19C948.517 5.386 948.237 5.68 948.022 6.072C947.808 6.464 947.7 6.94933 947.7 7.528C947.7 8.10667 947.808 8.592 948.022 8.984C948.237 9.376 948.517 9.67467 948.862 9.88C949.208 10.076 949.576 10.174 949.968 10.174C950.454 10.174 950.878 10.0573 951.242 9.824C951.606 9.58133 951.835 9.24067 951.928 8.802H953.132C952.992 9.502 952.638 10.0713 952.068 10.51C951.499 10.9487 950.804 11.168 949.982 11.168ZM954.775 11V0.92H955.951V5.246C956.184 4.81667 956.515 4.48533 956.945 4.252C957.374 4.00933 957.841 3.888 958.345 3.888C959.147 3.888 959.791 4.14 960.277 4.644C960.762 5.13867 961.005 5.904 961.005 6.94V11H959.843V7.066C959.843 5.61933 959.259 4.896 958.093 4.896C957.486 4.896 956.977 5.11533 956.567 5.554C956.156 5.98333 955.951 6.59933 955.951 7.402V11H954.775ZM996.202 11V1.2H999.646C1000.34 1.2 1000.91 1.312 1001.35 1.536C1001.81 1.75067 1002.15 2.04933 1002.38 2.432C1002.6 2.80533 1002.71 3.22533 1002.71 3.692C1002.71 4.32667 1002.54 4.826 1002.19 5.19C1001.86 5.554 1001.45 5.806 1000.98 5.946C1001.34 6.01133 1001.67 6.156 1001.97 6.38C1002.27 6.604 1002.5 6.884 1002.67 7.22C1002.85 7.556 1002.94 7.92467 1002.94 8.326C1002.94 8.82067 1002.81 9.27333 1002.57 9.684C1002.33 10.0853 1001.97 10.4073 1001.49 10.65C1001.02 10.8833 1000.44 11 999.758 11H996.202ZM997.378 5.484H999.562C1000.19 5.484 1000.67 5.33933 1001 5.05C1001.34 4.75133 1001.51 4.34067 1001.51 3.818C1001.51 3.32333 1001.34 2.92667 1001 2.628C1000.68 2.32933 1000.18 2.18 999.52 2.18H997.378V5.484ZM997.378 10.02H999.632C1000.3 10.02 1000.82 9.866 1001.19 9.558C1001.55 9.24067 1001.73 8.802 1001.73 8.242C1001.73 7.69133 1001.54 7.25267 1001.16 6.926C1000.78 6.59 1000.26 6.422 999.604 6.422H997.378V10.02ZM1007.09 11.168C1006.27 11.168 1005.61 10.9207 1005.13 10.426C1004.64 9.922 1004.4 9.152 1004.4 8.116V4.056H1005.58V7.99C1005.58 9.43667 1006.17 10.16 1007.35 10.16C1007.96 10.16 1008.46 9.94533 1008.85 9.516C1009.25 9.07733 1009.45 8.45667 1009.45 7.654V4.056H1010.63V11H1009.57L1009.48 9.754C1009.27 10.1927 1008.95 10.538 1008.52 10.79C1008.1 11.042 1007.62 11.168 1007.09 11.168ZM1015.23 11.168C1014.39 11.168 1013.7 10.958 1013.15 10.538C1012.6 10.118 1012.28 9.54867 1012.19 8.83H1013.39C1013.47 9.194 1013.66 9.51133 1013.97 9.782C1014.28 10.0433 1014.71 10.174 1015.24 10.174C1015.73 10.174 1016.1 10.0713 1016.33 9.866C1016.56 9.65133 1016.68 9.39933 1016.68 9.11C1016.68 8.69 1016.53 8.41 1016.22 8.27C1015.92 8.13 1015.5 8.004 1014.95 7.892C1014.57 7.81733 1014.2 7.71 1013.83 7.57C1013.45 7.43 1013.14 7.234 1012.89 6.982C1012.64 6.72067 1012.51 6.38 1012.51 5.96C1012.51 5.35333 1012.73 4.85867 1013.18 4.476C1013.64 4.084 1014.25 3.888 1015.03 3.888C1015.77 3.888 1016.37 4.07467 1016.84 4.448C1017.31 4.812 1017.59 5.33467 1017.66 6.016H1016.5C1016.45 5.66133 1016.3 5.386 1016.04 5.19C1015.79 4.98467 1015.44 4.882 1015.02 4.882C1014.6 4.882 1014.27 4.97067 1014.04 5.148C1013.81 5.32533 1013.7 5.55867 1013.7 5.848C1013.7 6.128 1013.84 6.34733 1014.13 6.506C1014.43 6.66467 1014.83 6.8 1015.34 6.912C1015.77 7.00533 1016.17 7.122 1016.56 7.262C1016.95 7.39267 1017.26 7.59333 1017.51 7.864C1017.76 8.12533 1017.89 8.508 1017.89 9.012C1017.89 9.63733 1017.66 10.1553 1017.17 10.566C1016.7 10.9673 1016.05 11.168 1015.23 11.168ZM1020.28 2.516C1020.05 2.516 1019.85 2.44133 1019.69 2.292C1019.54 2.13333 1019.47 1.93733 1019.47 1.704C1019.47 1.48 1019.54 1.29333 1019.69 1.144C1019.85 0.994666 1020.05 0.92 1020.28 0.92C1020.5 0.92 1020.69 0.994666 1020.85 1.144C1021.01 1.29333 1021.09 1.48 1021.09 1.704C1021.09 1.93733 1021.01 2.13333 1020.85 2.292C1020.69 2.44133 1020.5 2.516 1020.28 2.516ZM1019.69 11V4.056H1020.87V11H1019.69ZM1022.92 11V4.056H1023.98L1024.05 5.302C1024.27 4.86333 1024.6 4.518 1025.02 4.266C1025.44 4.014 1025.91 3.888 1026.44 3.888C1027.26 3.888 1027.92 4.14 1028.4 4.644C1028.9 5.13867 1029.15 5.904 1029.15 6.94V11H1027.97V7.066C1027.97 5.61933 1027.37 4.896 1026.18 4.896C1025.58 4.896 1025.08 5.11533 1024.68 5.554C1024.29 5.98333 1024.09 6.59933 1024.09 7.402V11H1022.92ZM1034.05 11.168C1033.39 11.168 1032.8 11.0187 1032.28 10.72C1031.77 10.412 1031.37 9.98733 1031.07 9.446C1030.78 8.90467 1030.63 8.26533 1030.63 7.528C1030.63 6.8 1030.78 6.16533 1031.07 5.624C1031.36 5.07333 1031.76 4.64867 1032.27 4.35C1032.79 4.042 1033.4 3.888 1034.08 3.888C1034.75 3.888 1035.33 4.042 1035.81 4.35C1036.31 4.64867 1036.69 5.04533 1036.95 5.54C1037.21 6.03467 1037.34 6.56667 1037.34 7.136C1037.34 7.23867 1037.33 7.34133 1037.32 7.444C1037.32 7.54667 1037.32 7.66333 1037.32 7.794H1031.79C1031.82 8.326 1031.94 8.76933 1032.16 9.124C1032.38 9.46933 1032.66 9.73067 1032.98 9.908C1033.32 10.0853 1033.68 10.174 1034.05 10.174C1034.53 10.174 1034.94 10.062 1035.27 9.838C1035.59 9.614 1035.83 9.31067 1035.98 8.928H1037.14C1036.96 9.572 1036.6 10.1087 1036.06 10.538C1035.54 10.958 1034.87 11.168 1034.05 11.168ZM1034.05 4.882C1033.49 4.882 1032.99 5.05467 1032.55 5.4C1032.12 5.736 1031.87 6.23067 1031.81 6.884H1036.18C1036.15 6.25867 1035.93 5.76867 1035.53 5.414C1035.13 5.05933 1034.64 4.882 1034.05 4.882ZM1041.56 11.168C1040.73 11.168 1040.04 10.958 1039.49 10.538C1038.93 10.118 1038.61 9.54867 1038.52 8.83H1039.72C1039.8 9.194 1039.99 9.51133 1040.3 9.782C1040.61 10.0433 1041.04 10.174 1041.57 10.174C1042.07 10.174 1042.43 10.0713 1042.66 9.866C1042.9 9.65133 1043.01 9.39933 1043.01 9.11C1043.01 8.69 1042.86 8.41 1042.55 8.27C1042.25 8.13 1041.83 8.004 1041.28 7.892C1040.9 7.81733 1040.53 7.71 1040.16 7.57C1039.78 7.43 1039.47 7.234 1039.22 6.982C1038.97 6.72067 1038.84 6.38 1038.84 5.96C1038.84 5.35333 1039.07 4.85867 1039.51 4.476C1039.97 4.084 1040.59 3.888 1041.36 3.888C1042.1 3.888 1042.7 4.07467 1043.17 4.448C1043.64 4.812 1043.92 5.33467 1043.99 6.016H1042.83C1042.78 5.66133 1042.63 5.386 1042.37 5.19C1042.12 4.98467 1041.78 4.882 1041.35 4.882C1040.93 4.882 1040.6 4.97067 1040.37 5.148C1040.14 5.32533 1040.03 5.55867 1040.03 5.848C1040.03 6.128 1040.18 6.34733 1040.47 6.506C1040.76 6.66467 1041.17 6.8 1041.67 6.912C1042.1 7.00533 1042.5 7.122 1042.89 7.262C1043.28 7.39267 1043.6 7.59333 1043.84 7.864C1044.09 8.12533 1044.22 8.508 1044.22 9.012C1044.23 9.63733 1043.99 10.1553 1043.5 10.566C1043.03 10.9673 1042.38 11.168 1041.56 11.168ZM1048.56 11.168C1047.73 11.168 1047.04 10.958 1046.49 10.538C1045.93 10.118 1045.61 9.54867 1045.52 8.83H1046.72C1046.8 9.194 1046.99 9.51133 1047.3 9.782C1047.61 10.0433 1048.04 10.174 1048.57 10.174C1049.07 10.174 1049.43 10.0713 1049.66 9.866C1049.9 9.65133 1050.01 9.39933 1050.01 9.11C1050.01 8.69 1049.86 8.41 1049.55 8.27C1049.25 8.13 1048.83 8.004 1048.28 7.892C1047.9 7.81733 1047.53 7.71 1047.16 7.57C1046.78 7.43 1046.47 7.234 1046.22 6.982C1045.97 6.72067 1045.84 6.38 1045.84 5.96C1045.84 5.35333 1046.07 4.85867 1046.51 4.476C1046.97 4.084 1047.59 3.888 1048.36 3.888C1049.1 3.888 1049.7 4.07467 1050.17 4.448C1050.64 4.812 1050.92 5.33467 1050.99 6.016H1049.83C1049.78 5.66133 1049.63 5.386 1049.37 5.19C1049.12 4.98467 1048.78 4.882 1048.35 4.882C1047.93 4.882 1047.6 4.97067 1047.37 5.148C1047.14 5.32533 1047.03 5.55867 1047.03 5.848C1047.03 6.128 1047.18 6.34733 1047.47 6.506C1047.76 6.66467 1048.17 6.8 1048.67 6.912C1049.1 7.00533 1049.5 7.122 1049.89 7.262C1050.28 7.39267 1050.6 7.59333 1050.84 7.864C1051.09 8.12533 1051.22 8.508 1051.22 9.012C1051.23 9.63733 1050.99 10.1553 1050.5 10.566C1050.03 10.9673 1049.38 11.168 1048.56 11.168ZM1086.31 11V1.2H1087.49V10.062H1092.05V11H1086.31ZM1094.31 2.516C1094.08 2.516 1093.88 2.44133 1093.72 2.292C1093.58 2.13333 1093.5 1.93733 1093.5 1.704C1093.5 1.48 1093.58 1.29333 1093.72 1.144C1093.88 0.994666 1094.08 0.92 1094.31 0.92C1094.54 0.92 1094.73 0.994666 1094.89 1.144C1095.05 1.29333 1095.12 1.48 1095.12 1.704C1095.12 1.93733 1095.05 2.13333 1094.89 2.292C1094.73 2.44133 1094.54 2.516 1094.31 2.516ZM1093.72 11V4.056H1094.9V11H1093.72ZM1097.33 11V5.05H1096.28V4.056H1097.33V2.852C1097.33 2.18 1097.49 1.69 1097.83 1.382C1098.17 1.074 1098.66 0.92 1099.3 0.92H1100V1.928H1099.48C1099.13 1.928 1098.88 2.00267 1098.73 2.152C1098.58 2.292 1098.5 2.53467 1098.5 2.88V4.056H1100.21V5.05H1098.5V11H1097.33ZM1104.46 11.168C1103.8 11.168 1103.21 11.0187 1102.7 10.72C1102.18 10.412 1101.78 9.98733 1101.48 9.446C1101.19 8.90467 1101.04 8.26533 1101.04 7.528C1101.04 6.8 1101.19 6.16533 1101.48 5.624C1101.77 5.07333 1102.17 4.64867 1102.68 4.35C1103.2 4.042 1103.81 3.888 1104.49 3.888C1105.16 3.888 1105.74 4.042 1106.22 4.35C1106.72 4.64867 1107.1 5.04533 1107.36 5.54C1107.62 6.03467 1107.75 6.56667 1107.75 7.136C1107.75 7.23867 1107.74 7.34133 1107.74 7.444C1107.74 7.54667 1107.74 7.66333 1107.74 7.794H1102.21C1102.23 8.326 1102.35 8.76933 1102.57 9.124C1102.79 9.46933 1103.07 9.73067 1103.4 9.908C1103.73 10.0853 1104.09 10.174 1104.46 10.174C1104.94 10.174 1105.35 10.062 1105.68 9.838C1106 9.614 1106.24 9.31067 1106.39 8.928H1107.55C1107.37 9.572 1107.01 10.1087 1106.48 10.538C1105.95 10.958 1105.28 11.168 1104.46 11.168ZM1104.46 4.882C1103.9 4.882 1103.4 5.05467 1102.96 5.4C1102.53 5.736 1102.28 6.23067 1102.22 6.884H1106.59C1106.56 6.25867 1106.34 5.76867 1105.94 5.414C1105.54 5.05933 1105.05 4.882 1104.46 4.882ZM1111.97 11.168C1111.14 11.168 1110.45 10.958 1109.9 10.538C1109.35 10.118 1109.02 9.54867 1108.93 8.83H1110.13C1110.21 9.194 1110.4 9.51133 1110.71 9.782C1111.03 10.0433 1111.45 10.174 1111.98 10.174C1112.48 10.174 1112.84 10.0713 1113.07 9.866C1113.31 9.65133 1113.42 9.39933 1113.42 9.11C1113.42 8.69 1113.27 8.41 1112.96 8.27C1112.66 8.13 1112.24 8.004 1111.69 7.892C1111.31 7.81733 1110.94 7.71 1110.57 7.57C1110.19 7.43 1109.88 7.234 1109.63 6.982C1109.38 6.72067 1109.25 6.38 1109.25 5.96C1109.25 5.35333 1109.48 4.85867 1109.92 4.476C1110.38 4.084 1111 3.888 1111.77 3.888C1112.51 3.888 1113.11 4.07467 1113.58 4.448C1114.05 4.812 1114.33 5.33467 1114.4 6.016H1113.24C1113.2 5.66133 1113.04 5.386 1112.78 5.19C1112.53 4.98467 1112.19 4.882 1111.76 4.882C1111.34 4.882 1111.01 4.97067 1110.78 5.148C1110.55 5.32533 1110.44 5.55867 1110.44 5.848C1110.44 6.128 1110.59 6.34733 1110.88 6.506C1111.17 6.66467 1111.58 6.8 1112.08 6.912C1112.51 7.00533 1112.92 7.122 1113.3 7.262C1113.69 7.39267 1114.01 7.59333 1114.25 7.864C1114.5 8.12533 1114.63 8.508 1114.63 9.012C1114.64 9.63733 1114.4 10.1553 1113.91 10.566C1113.44 10.9673 1112.79 11.168 1111.97 11.168ZM1118.74 11C1118.1 11 1117.6 10.846 1117.24 10.538C1116.88 10.23 1116.69 9.67467 1116.69 8.872V5.05H1115.49V4.056H1116.69L1116.85 2.39H1117.87V4.056H1119.91V5.05H1117.87V8.872C1117.87 9.31067 1117.96 9.60933 1118.14 9.768C1118.31 9.91733 1118.63 9.992 1119.07 9.992H1119.8V11H1118.74ZM1122.16 14.08L1123.89 10.328H1123.48L1120.72 4.056H1122L1124.29 9.46L1126.73 4.056H1127.95L1123.4 14.08H1122.16ZM1129.19 11V0.92H1130.36V11H1129.19ZM1135.41 11.168C1134.75 11.168 1134.16 11.0187 1133.65 10.72C1133.13 10.412 1132.73 9.98733 1132.43 9.446C1132.14 8.90467 1132 8.26533 1132 7.528C1132 6.8 1132.14 6.16533 1132.43 5.624C1132.72 5.07333 1133.12 4.64867 1133.63 4.35C1134.16 4.042 1134.76 3.888 1135.44 3.888C1136.11 3.888 1136.69 4.042 1137.18 4.35C1137.67 4.64867 1138.05 5.04533 1138.31 5.54C1138.57 6.03467 1138.7 6.56667 1138.7 7.136C1138.7 7.23867 1138.7 7.34133 1138.69 7.444C1138.69 7.54667 1138.69 7.66333 1138.69 7.794H1133.16C1133.19 8.326 1133.31 8.76933 1133.52 9.124C1133.75 9.46933 1134.02 9.73067 1134.35 9.908C1134.68 10.0853 1135.04 10.174 1135.41 10.174C1135.9 10.174 1136.3 10.062 1136.63 9.838C1136.96 9.614 1137.19 9.31067 1137.34 8.928H1138.51C1138.32 9.572 1137.96 10.1087 1137.43 10.538C1136.91 10.958 1136.23 11.168 1135.41 11.168ZM1135.41 4.882C1134.85 4.882 1134.35 5.05467 1133.91 5.4C1133.48 5.736 1133.24 6.23067 1133.17 6.884H1137.54C1137.51 6.25867 1137.3 5.76867 1136.9 5.414C1136.49 5.05933 1136 4.882 1135.41 4.882ZM1175.97 11V2.166H1173.05V1.2H1180.07V2.166H1177.15V11H1175.97ZM1180.65 11V4.056H1181.71L1181.81 5.386C1182.02 4.92867 1182.35 4.56467 1182.79 4.294C1183.23 4.02333 1183.77 3.888 1184.41 3.888V5.12H1184.09C1183.68 5.12 1183.3 5.19467 1182.96 5.344C1182.61 5.484 1182.34 5.72667 1182.13 6.072C1181.93 6.41733 1181.82 6.89333 1181.82 7.5V11H1180.65ZM1188.6 11.168C1187.93 11.168 1187.35 11.0187 1186.83 10.72C1186.32 10.412 1185.91 9.98733 1185.61 9.446C1185.32 8.90467 1185.18 8.26533 1185.18 7.528C1185.18 6.8 1185.32 6.16533 1185.61 5.624C1185.9 5.07333 1186.3 4.64867 1186.82 4.35C1187.34 4.042 1187.94 3.888 1188.62 3.888C1189.3 3.888 1189.87 4.042 1190.36 4.35C1190.85 4.64867 1191.23 5.04533 1191.49 5.54C1191.76 6.03467 1191.89 6.56667 1191.89 7.136C1191.89 7.23867 1191.88 7.34133 1191.87 7.444C1191.87 7.54667 1191.87 7.66333 1191.87 7.794H1186.34C1186.37 8.326 1186.49 8.76933 1186.71 9.124C1186.93 9.46933 1187.21 9.73067 1187.53 9.908C1187.87 10.0853 1188.22 10.174 1188.6 10.174C1189.08 10.174 1189.49 10.062 1189.81 9.838C1190.14 9.614 1190.38 9.31067 1190.53 8.928H1191.69C1191.5 9.572 1191.14 10.1087 1190.61 10.538C1190.09 10.958 1189.42 11.168 1188.6 11.168ZM1188.6 4.882C1188.04 4.882 1187.54 5.05467 1187.1 5.4C1186.67 5.736 1186.42 6.23067 1186.36 6.884H1190.72C1190.7 6.25867 1190.48 5.76867 1190.08 5.414C1189.68 5.05933 1189.18 4.882 1188.6 4.882ZM1193.44 11V4.056H1194.51L1194.58 5.302C1194.8 4.86333 1195.12 4.518 1195.54 4.266C1195.96 4.014 1196.44 3.888 1196.97 3.888C1197.79 3.888 1198.45 4.14 1198.93 4.644C1199.43 5.13867 1199.67 5.904 1199.67 6.94V11H1198.5V7.066C1198.5 5.61933 1197.9 4.896 1196.71 4.896C1196.11 4.896 1195.61 5.11533 1195.21 5.554C1194.82 5.98333 1194.62 6.59933 1194.62 7.402V11H1193.44ZM1204.61 11.168C1203.92 11.168 1203.31 11.0093 1202.79 10.692C1202.27 10.3747 1201.87 9.94067 1201.58 9.39C1201.3 8.83933 1201.16 8.214 1201.16 7.514C1201.16 6.814 1201.31 6.19333 1201.6 5.652C1201.89 5.10133 1202.29 4.672 1202.8 4.364C1203.31 4.04667 1203.92 3.888 1204.62 3.888C1205.19 3.888 1205.69 4.00467 1206.13 4.238C1206.57 4.47133 1206.91 4.798 1207.15 5.218V0.92H1208.33V11H1207.27L1207.15 9.852C1206.93 10.188 1206.61 10.4913 1206.19 10.762C1205.77 11.0327 1205.24 11.168 1204.61 11.168ZM1204.73 10.146C1205.2 10.146 1205.61 10.0387 1205.96 9.824C1206.33 9.6 1206.61 9.292 1206.8 8.9C1207.01 8.508 1207.11 8.05067 1207.11 7.528C1207.11 7.00533 1207.01 6.548 1206.8 6.156C1206.61 5.764 1206.33 5.46067 1205.96 5.246C1205.61 5.022 1205.2 4.91 1204.73 4.91C1204.27 4.91 1203.86 5.022 1203.5 5.246C1203.15 5.46067 1202.87 5.764 1202.66 6.156C1202.46 6.548 1202.37 7.00533 1202.37 7.528C1202.37 8.05067 1202.46 8.508 1202.66 8.9C1202.87 9.292 1203.15 9.6 1203.5 9.824C1203.86 10.0387 1204.27 10.146 1204.73 10.146ZM1210.96 2.516C1210.73 2.516 1210.53 2.44133 1210.37 2.292C1210.22 2.13333 1210.15 1.93733 1210.15 1.704C1210.15 1.48 1210.22 1.29333 1210.37 1.144C1210.53 0.994666 1210.73 0.92 1210.96 0.92C1211.19 0.92 1211.38 0.994666 1211.54 1.144C1211.69 1.29333 1211.77 1.48 1211.77 1.704C1211.77 1.93733 1211.69 2.13333 1211.54 2.292C1211.38 2.44133 1211.19 2.516 1210.96 2.516ZM1210.37 11V4.056H1211.55V11H1210.37ZM1213.6 11V4.056H1214.66L1214.73 5.302C1214.95 4.86333 1215.28 4.518 1215.7 4.266C1216.12 4.014 1216.59 3.888 1217.12 3.888C1217.95 3.888 1218.6 4.14 1219.08 4.644C1219.58 5.13867 1219.83 5.904 1219.83 6.94V11H1218.65V7.066C1218.65 5.61933 1218.05 4.896 1216.86 4.896C1216.26 4.896 1215.76 5.11533 1215.36 5.554C1214.97 5.98333 1214.77 6.59933 1214.77 7.402V11H1213.6ZM1224.35 8.816C1223.96 8.816 1223.6 8.76467 1223.27 8.662L1222.57 9.32C1222.68 9.39467 1222.8 9.46 1222.95 9.516C1223.11 9.56267 1223.34 9.60933 1223.62 9.656C1223.91 9.69333 1224.32 9.73533 1224.84 9.782C1225.78 9.84733 1226.44 10.062 1226.84 10.426C1227.25 10.79 1227.45 11.266 1227.45 11.854C1227.45 12.2553 1227.33 12.638 1227.11 13.002C1226.9 13.366 1226.56 13.6647 1226.1 13.898C1225.65 14.1313 1225.08 14.248 1224.37 14.248C1223.74 14.248 1223.19 14.164 1222.7 13.996C1222.22 13.8373 1221.84 13.59 1221.57 13.254C1221.3 12.9273 1221.16 12.512 1221.16 12.008C1221.16 11.7467 1221.23 11.462 1221.37 11.154C1221.51 10.8553 1221.77 10.5707 1222.15 10.3C1221.95 10.216 1221.77 10.1273 1221.62 10.034C1221.48 9.93133 1221.35 9.81933 1221.23 9.698V9.376L1222.42 8.2C1221.87 7.73333 1221.59 7.11733 1221.59 6.352C1221.59 5.89467 1221.7 5.47933 1221.92 5.106C1222.13 4.73267 1222.44 4.43867 1222.85 4.224C1223.27 4 1223.76 3.888 1224.35 3.888C1224.75 3.888 1225.12 3.944 1225.44 4.056H1228.01V4.938L1226.7 4.994C1226.98 5.386 1227.11 5.83867 1227.11 6.352C1227.11 6.80933 1227 7.22467 1226.77 7.598C1226.56 7.97133 1226.25 8.27 1225.84 8.494C1225.44 8.70867 1224.94 8.816 1224.35 8.816ZM1224.35 7.85C1224.85 7.85 1225.24 7.724 1225.53 7.472C1225.83 7.21067 1225.98 6.83733 1225.98 6.352C1225.98 5.876 1225.83 5.512 1225.53 5.26C1225.24 4.99867 1224.85 4.868 1224.35 4.868C1223.85 4.868 1223.45 4.99867 1223.15 5.26C1222.86 5.512 1222.71 5.876 1222.71 6.352C1222.71 6.83733 1222.86 7.21067 1223.15 7.472C1223.45 7.724 1223.85 7.85 1224.35 7.85ZM1222.31 11.896C1222.31 12.3627 1222.5 12.708 1222.9 12.932C1223.29 13.1653 1223.78 13.282 1224.37 13.282C1224.95 13.282 1225.41 13.156 1225.75 12.904C1226.11 12.652 1226.28 12.316 1226.28 11.896C1226.28 11.5973 1226.16 11.336 1225.92 11.112C1225.68 10.8973 1225.23 10.7713 1224.58 10.734C1224.06 10.6967 1223.62 10.65 1223.25 10.594C1222.86 10.7993 1222.61 11.0187 1222.49 11.252C1222.37 11.4947 1222.31 11.7093 1222.31 11.896Z" fill="#222222"/>
<path d="M236.469 11V1.2H239.647C240.795 1.2 241.737 1.40067 242.475 1.802C243.221 2.20333 243.772 2.77267 244.127 3.51C244.491 4.238 244.673 5.106 244.673 6.114C244.673 7.11267 244.491 7.98067 244.127 8.718C243.772 9.446 243.221 10.0107 242.475 10.412C241.737 10.804 240.795 11 239.647 11H236.469ZM237.953 9.74H239.591C240.477 9.74 241.177 9.59533 241.691 9.306C242.213 9.01667 242.587 8.60133 242.811 8.06C243.044 7.51867 243.161 6.87 243.161 6.114C243.161 5.358 243.044 4.70467 242.811 4.154C242.587 3.60333 242.213 3.18333 241.691 2.894C241.177 2.59533 240.477 2.446 239.591 2.446H237.953V9.74ZM247.096 2.74C246.816 2.74 246.583 2.656 246.396 2.488C246.219 2.31067 246.13 2.09133 246.13 1.83C246.13 1.56867 246.219 1.354 246.396 1.186C246.583 1.00867 246.816 0.92 247.096 0.92C247.376 0.92 247.605 1.00867 247.782 1.186C247.969 1.354 248.062 1.56867 248.062 1.83C248.062 2.09133 247.969 2.31067 247.782 2.488C247.605 2.656 247.376 2.74 247.096 2.74ZM246.354 11V4.056H247.838V11H246.354ZM252.639 8.872C252.275 8.872 251.939 8.83 251.631 8.746L251.029 9.334C251.132 9.39933 251.258 9.45533 251.407 9.502C251.557 9.54867 251.767 9.59067 252.037 9.628C252.308 9.66533 252.677 9.70267 253.143 9.74C254.067 9.824 254.735 10.048 255.145 10.412C255.556 10.7667 255.761 11.2427 255.761 11.84C255.761 12.2507 255.649 12.638 255.425 13.002C255.211 13.3753 254.87 13.674 254.403 13.898C253.946 14.1313 253.358 14.248 252.639 14.248C251.669 14.248 250.88 14.0613 250.273 13.688C249.676 13.324 249.377 12.7687 249.377 12.022C249.377 11.7327 249.452 11.4433 249.601 11.154C249.76 10.874 250.007 10.608 250.343 10.356C250.147 10.272 249.975 10.1833 249.825 10.09C249.685 9.98733 249.559 9.88467 249.447 9.782V9.446L250.651 8.214C250.11 7.74733 249.839 7.136 249.839 6.38C249.839 5.92267 249.947 5.50733 250.161 5.134C250.385 4.75133 250.707 4.448 251.127 4.224C251.547 4 252.051 3.888 252.639 3.888C253.031 3.888 253.395 3.944 253.731 4.056H256.321V5.036L255.089 5.106C255.313 5.48867 255.425 5.91333 255.425 6.38C255.425 6.84667 255.313 7.26667 255.089 7.64C254.875 8.01333 254.557 8.312 254.137 8.536C253.727 8.76 253.227 8.872 252.639 8.872ZM252.639 7.71C253.069 7.71 253.414 7.598 253.675 7.374C253.946 7.14067 254.081 6.814 254.081 6.394C254.081 5.96467 253.946 5.638 253.675 5.414C253.414 5.19 253.069 5.078 252.639 5.078C252.201 5.078 251.846 5.19 251.575 5.414C251.314 5.638 251.183 5.96467 251.183 6.394C251.183 6.814 251.314 7.14067 251.575 7.374C251.846 7.598 252.201 7.71 252.639 7.71ZM250.777 11.882C250.777 12.2833 250.955 12.582 251.309 12.778C251.664 12.9833 252.107 13.086 252.639 13.086C253.153 13.086 253.568 12.974 253.885 12.75C254.203 12.5353 254.361 12.246 254.361 11.882C254.361 11.6113 254.254 11.378 254.039 11.182C253.825 10.9953 253.419 10.8787 252.821 10.832C252.373 10.804 251.977 10.762 251.631 10.706C251.305 10.8833 251.081 11.0747 250.959 11.28C250.838 11.4853 250.777 11.686 250.777 11.882ZM258.485 2.74C258.205 2.74 257.972 2.656 257.785 2.488C257.608 2.31067 257.519 2.09133 257.519 1.83C257.519 1.56867 257.608 1.354 257.785 1.186C257.972 1.00867 258.205 0.92 258.485 0.92C258.765 0.92 258.994 1.00867 259.171 1.186C259.358 1.354 259.451 1.56867 259.451 1.83C259.451 2.09133 259.358 2.31067 259.171 2.488C258.994 2.656 258.765 2.74 258.485 2.74ZM257.743 11V4.056H259.227V11H257.743ZM264.098 11C263.417 11 262.875 10.8367 262.474 10.51C262.073 10.174 261.872 9.58133 261.872 8.732V5.302H260.682V4.056H261.872L262.054 2.292H263.356V4.056H265.316V5.302H263.356V8.732C263.356 9.11467 263.435 9.38067 263.594 9.53C263.762 9.67 264.047 9.74 264.448 9.74H265.246V11H264.098ZM269.198 11.168C268.61 11.168 268.125 11.07 267.742 10.874C267.36 10.678 267.075 10.4213 266.888 10.104C266.702 9.77733 266.608 9.42267 266.608 9.04C266.608 8.368 266.87 7.836 267.392 7.444C267.915 7.052 268.662 6.856 269.632 6.856H271.452V6.73C271.452 6.18867 271.303 5.78267 271.004 5.512C270.715 5.24133 270.337 5.106 269.87 5.106C269.46 5.106 269.1 5.20867 268.792 5.414C268.494 5.61 268.312 5.904 268.246 6.296H266.762C266.809 5.792 266.977 5.36267 267.266 5.008C267.565 4.644 267.938 4.36867 268.386 4.182C268.844 3.986 269.343 3.888 269.884 3.888C270.855 3.888 271.606 4.14467 272.138 4.658C272.67 5.162 272.936 5.85267 272.936 6.73V11H271.648L271.522 9.81C271.326 10.1927 271.042 10.5147 270.668 10.776C270.295 11.0373 269.805 11.168 269.198 11.168ZM269.492 9.964C269.894 9.964 270.23 9.87067 270.5 9.684C270.78 9.488 270.995 9.23133 271.144 8.914C271.303 8.59667 271.401 8.24667 271.438 7.864H269.786C269.198 7.864 268.778 7.96667 268.526 8.172C268.284 8.37733 268.162 8.634 268.162 8.942C268.162 9.25933 268.279 9.51133 268.512 9.698C268.755 9.87533 269.082 9.964 269.492 9.964ZM274.667 11V0.92H276.151V11H274.667ZM281.613 11V1.2H283.363L286.681 7.724L289.985 1.2H291.735V11H290.251V3.762L287.255 9.6H286.107L283.097 3.776V11H281.613ZM296.022 11.168C295.434 11.168 294.949 11.07 294.566 10.874C294.184 10.678 293.899 10.4213 293.712 10.104C293.526 9.77733 293.432 9.42267 293.432 9.04C293.432 8.368 293.694 7.836 294.216 7.444C294.739 7.052 295.486 6.856 296.456 6.856H298.276V6.73C298.276 6.18867 298.127 5.78267 297.828 5.512C297.539 5.24133 297.161 5.106 296.694 5.106C296.284 5.106 295.924 5.20867 295.616 5.414C295.318 5.61 295.136 5.904 295.07 6.296H293.586C293.633 5.792 293.801 5.36267 294.09 5.008C294.389 4.644 294.762 4.36867 295.21 4.182C295.668 3.986 296.167 3.888 296.708 3.888C297.679 3.888 298.43 4.14467 298.962 4.658C299.494 5.162 299.76 5.85267 299.76 6.73V11H298.472L298.346 9.81C298.15 10.1927 297.866 10.5147 297.492 10.776C297.119 11.0373 296.629 11.168 296.022 11.168ZM296.316 9.964C296.718 9.964 297.054 9.87067 297.324 9.684C297.604 9.488 297.819 9.23133 297.968 8.914C298.127 8.59667 298.225 8.24667 298.262 7.864H296.61C296.022 7.864 295.602 7.96667 295.35 8.172C295.108 8.37733 294.986 8.634 294.986 8.942C294.986 9.25933 295.103 9.51133 295.336 9.698C295.579 9.87533 295.906 9.964 296.316 9.964ZM301.491 11V4.056H302.821L302.947 5.372C303.189 4.91467 303.525 4.55533 303.955 4.294C304.393 4.02333 304.921 3.888 305.537 3.888V5.442H305.131C304.72 5.442 304.351 5.512 304.025 5.652C303.707 5.78267 303.451 6.01133 303.255 6.338C303.068 6.65533 302.975 7.09867 302.975 7.668V11H301.491ZM306.809 11V0.92H308.293V6.926L310.953 4.056H312.731L309.777 7.206L313.165 11H311.289L308.293 7.444V11H306.809ZM317.03 11.168C316.348 11.168 315.742 11.0187 315.21 10.72C314.687 10.412 314.276 9.98733 313.978 9.446C313.679 8.90467 313.53 8.27467 313.53 7.556C313.53 6.828 313.674 6.18867 313.964 5.638C314.262 5.08733 314.673 4.658 315.196 4.35C315.728 4.042 316.344 3.888 317.044 3.888C317.725 3.888 318.318 4.042 318.822 4.35C319.326 4.64867 319.718 5.05 319.998 5.554C320.278 6.058 320.418 6.61333 320.418 7.22C320.418 7.31333 320.413 7.416 320.404 7.528C320.404 7.63067 320.399 7.74733 320.39 7.878H314.986C315.032 8.55 315.252 9.06333 315.644 9.418C316.045 9.76333 316.507 9.936 317.03 9.936C317.45 9.936 317.8 9.84267 318.08 9.656C318.369 9.46 318.584 9.19867 318.724 8.872H320.208C320.021 9.52533 319.648 10.0713 319.088 10.51C318.537 10.9487 317.851 11.168 317.03 11.168ZM317.03 5.106C316.535 5.106 316.096 5.25533 315.714 5.554C315.331 5.84333 315.098 6.282 315.014 6.87H318.934C318.906 6.32867 318.714 5.89933 318.36 5.582C318.005 5.26467 317.562 5.106 317.03 5.106ZM324.692 11C324.01 11 323.469 10.8367 323.068 10.51C322.666 10.174 322.466 9.58133 322.466 8.732V5.302H321.276V4.056H322.466L322.648 2.292H323.95V4.056H325.91V5.302H323.95V8.732C323.95 9.11467 324.029 9.38067 324.188 9.53C324.356 9.67 324.64 9.74 325.042 9.74H325.84V11H324.692ZM328.28 2.74C328 2.74 327.767 2.656 327.58 2.488C327.403 2.31067 327.314 2.09133 327.314 1.83C327.314 1.56867 327.403 1.354 327.58 1.186C327.767 1.00867 328 0.92 328.28 0.92C328.56 0.92 328.789 1.00867 328.966 1.186C329.153 1.354 329.246 1.56867 329.246 1.83C329.246 2.09133 329.153 2.31067 328.966 2.488C328.789 2.656 328.56 2.74 328.28 2.74ZM327.538 11V4.056H329.022V11H327.538ZM330.981 11V4.056H332.297L332.409 5.274C332.624 4.84467 332.936 4.50867 333.347 4.266C333.767 4.014 334.248 3.888 334.789 3.888C335.629 3.888 336.287 4.14933 336.763 4.672C337.248 5.19467 337.491 5.974 337.491 7.01V11H336.021V7.164C336.021 5.82 335.47 5.148 334.369 5.148C333.818 5.148 333.361 5.344 332.997 5.736C332.642 6.128 332.465 6.688 332.465 7.416V11H330.981ZM342.081 8.872C341.717 8.872 341.381 8.83 341.073 8.746L340.471 9.334C340.573 9.39933 340.699 9.45533 340.849 9.502C340.998 9.54867 341.208 9.59067 341.479 9.628C341.749 9.66533 342.118 9.70267 342.585 9.74C343.509 9.824 344.176 10.048 344.587 10.412C344.997 10.7667 345.203 11.2427 345.203 11.84C345.203 12.2507 345.091 12.638 344.867 13.002C344.652 13.3753 344.311 13.674 343.845 13.898C343.387 14.1313 342.799 14.248 342.081 14.248C341.11 14.248 340.321 14.0613 339.715 13.688C339.117 13.324 338.819 12.7687 338.819 12.022C338.819 11.7327 338.893 11.4433 339.043 11.154C339.201 10.874 339.449 10.608 339.785 10.356C339.589 10.272 339.416 10.1833 339.267 10.09C339.127 9.98733 339.001 9.88467 338.889 9.782V9.446L340.093 8.214C339.551 7.74733 339.281 7.136 339.281 6.38C339.281 5.92267 339.388 5.50733 339.603 5.134C339.827 4.75133 340.149 4.448 340.569 4.224C340.989 4 341.493 3.888 342.081 3.888C342.473 3.888 342.837 3.944 343.173 4.056H345.763V5.036L344.531 5.106C344.755 5.48867 344.867 5.91333 344.867 6.38C344.867 6.84667 344.755 7.26667 344.531 7.64C344.316 8.01333 343.999 8.312 343.579 8.536C343.168 8.76 342.669 8.872 342.081 8.872ZM342.081 7.71C342.51 7.71 342.855 7.598 343.117 7.374C343.387 7.14067 343.523 6.814 343.523 6.394C343.523 5.96467 343.387 5.638 343.117 5.414C342.855 5.19 342.51 5.078 342.081 5.078C341.642 5.078 341.287 5.19 341.017 5.414C340.755 5.638 340.625 5.96467 340.625 6.394C340.625 6.814 340.755 7.14067 341.017 7.374C341.287 7.598 341.642 7.71 342.081 7.71ZM340.219 11.882C340.219 12.2833 340.396 12.582 340.751 12.778C341.105 12.9833 341.549 13.086 342.081 13.086C342.594 13.086 343.009 12.974 343.327 12.75C343.644 12.5353 343.803 12.246 343.803 11.882C343.803 11.6113 343.695 11.378 343.481 11.182C343.266 10.9953 342.86 10.8787 342.263 10.832C341.815 10.804 341.418 10.762 341.073 10.706C340.746 10.8833 340.522 11.0747 340.401 11.28C340.279 11.4853 340.219 11.686 340.219 11.882Z" fill="url(#paint0_linear_21_1965)"/>
<defs>
<linearGradient id="paint0_linear_21_1965" x1="1.93961" y1="3.84616" x2="1007.04" y2="3.84656" gradientUnits="userSpaceOnUse">
<stop stop-color="#00E4FF"/>
<stop offset="0.854167" stop-color="#1657F3"/>
</linearGradient>
</defs>
</svg>
