<svg width="20" height="20" viewBox="0 0 20 20" fill="none" xmlns="http://www.w3.org/2000/svg">
<path d="M5.00004 17.5001C4.54171 17.5001 4.14948 17.337 3.82337 17.0109C3.49671 16.6842 3.33337 16.2917 3.33337 15.8334V8.33341C3.33337 8.06953 3.39254 7.81953 3.51087 7.58341C3.62865 7.3473 3.79171 7.15286 4.00004 7.00008L9.00004 3.25008C9.15282 3.13897 9.31254 3.05564 9.47921 3.00008C9.64587 2.94453 9.81948 2.91675 10 2.91675C10.1806 2.91675 10.3542 2.94453 10.5209 3.00008C10.6875 3.05564 10.8473 3.13897 11 3.25008L16 7.00008C16.2084 7.15286 16.3717 7.3473 16.49 7.58341C16.6078 7.81953 16.6667 8.06953 16.6667 8.33341V15.8334C16.6667 16.2917 16.5037 16.6842 16.1775 17.0109C15.8509 17.337 15.4584 17.5001 15 17.5001H11.6667V11.6667H8.33337V17.5001H5.00004Z" fill="#111111"/>
</svg>
