<svg width="16" height="16" viewBox="0 0 16 16" fill="none" xmlns="http://www.w3.org/2000/svg">
<g clip-path="url(#clip0_21_1959)">
<path d="M14.125 8.625H10.5C9.46613 8.625 8.625 9.46613 8.625 10.5V14.125C8.625 15.1589 9.46613 16 10.5 16H14.125C15.1589 16 16 15.1589 16 14.125V10.5C16 9.46613 15.1589 8.625 14.125 8.625ZM14.75 14.125C14.75 14.4696 14.4696 14.75 14.125 14.75H10.5C10.1554 14.75 9.875 14.4696 9.875 14.125V10.5C9.875 10.1554 10.1554 9.875 10.5 9.875H14.125C14.4696 9.875 14.75 10.1554 14.75 10.5V14.125ZM5.5 8.625H1.875C0.841125 8.625 0 9.46613 0 10.5V14.125C0 15.1589 0.841125 16 1.875 16H5.5C6.53387 16 7.375 15.1589 7.375 14.125V10.5C7.375 9.46613 6.53387 8.625 5.5 8.625ZM6.125 14.125C6.125 14.4696 5.84462 14.75 5.5 14.75H1.875C1.53038 14.75 1.25 14.4696 1.25 14.125V10.5C1.25 10.1554 1.53038 9.875 1.875 9.875H5.5C5.84462 9.875 6.125 10.1554 6.125 10.5V14.125ZM5.5 0H1.875C0.841125 0 0 0.841125 0 1.875V5.5C0 6.53387 0.841125 7.375 1.875 7.375H5.5C6.53387 7.375 7.375 6.53387 7.375 5.5V1.875C7.375 0.841125 6.53387 0 5.5 0ZM6.125 5.5C6.125 5.84462 5.84462 6.125 5.5 6.125H1.875C1.53038 6.125 1.25 5.84462 1.25 5.5V1.875C1.25 1.53038 1.53038 1.25 1.875 1.25H5.5C5.84462 1.25 6.125 1.53038 6.125 1.875V5.5ZM14.125 0H10.5C9.46613 0 8.625 0.841125 8.625 1.875V5.5C8.625 6.53387 9.46613 7.375 10.5 7.375H14.125C15.1589 7.375 16 6.53387 16 5.5V1.875C16 0.841125 15.1589 0 14.125 0ZM14.75 5.5C14.75 5.84462 14.4696 6.125 14.125 6.125H10.5C10.1554 6.125 9.875 5.84462 9.875 5.5V1.875C9.875 1.53038 10.1554 1.25 10.5 1.25H14.125C14.4696 1.25 14.75 1.53038 14.75 1.875V5.5Z" fill="#333333"/>
</g>
<defs>
<clipPath id="clip0_21_1959">
<rect width="16" height="16" fill="white"/>
</clipPath>
</defs>
</svg>
