<svg width="16" height="17" viewBox="0 0 16 17" fill="none" xmlns="http://www.w3.org/2000/svg">
<g clip-path="url(#clip0_21_1992)">
<path d="M15.5553 0.899902H5.77756C5.53189 0.899902 5.3331 1.09869 5.3331 1.34436C5.3331 1.59003 5.53189 1.78882 5.77756 1.78882H14.4824L0.129975 16.1412C-0.0436504 16.3149 -0.0436504 16.5961 0.129975 16.7697C0.216766 16.8565 0.330516 16.8999 0.444225 16.8999C0.557933 16.8999 0.671641 16.8565 0.758475 16.7697L15.1109 2.41728V11.1222C15.1109 11.3678 15.3097 11.5666 15.5553 11.5666C15.801 11.5666 15.9998 11.3678 15.9998 11.1222V1.34436C15.9998 1.09869 15.801 0.899902 15.5553 0.899902Z" fill="#009DFF"/>
</g>
<defs>
<clipPath id="clip0_21_1992">
<rect width="16" height="16" fill="white" transform="translate(0 0.899902)"/>
</clipPath>
</defs>
</svg>
