<svg width="40" height="40" viewBox="0 0 40 40" fill="none" xmlns="http://www.w3.org/2000/svg">
<g clip-path="url(#clip0_21_1700)">
<path d="M37.5779 0H2.42212V23.4372H10.6251V27.7795C10.6251 33.3888 14.3472 38.3757 19.6764 39.907L20 39.9999L20.3236 39.907C25.6528 38.3757 29.3749 33.3887 29.3749 27.7795V23.4372H37.5779V0ZM35.2342 2.34372V4.68744H4.76584V2.34372H35.2342ZM27.0312 27.7795C27.0312 32.2348 24.1568 36.2061 20 37.5554C15.8432 36.2061 12.9689 32.2348 12.9689 27.7795V23.4372H16.4844C17.8829 23.4372 19.1404 22.8215 20 21.847C20.8596 22.8216 22.1171 23.4372 23.5156 23.4372H27.0312V27.7795ZM23.5156 21.0935C22.2233 21.0935 21.1719 20.0421 21.1719 18.7497H18.8281C18.8281 20.0421 17.7768 21.0935 16.4844 21.0935C15.9666 21.0935 5.28411 21.0935 4.76584 21.0935V7.03115H35.2342V21.0935C34.7171 21.0935 24.0349 21.0935 23.5156 21.0935Z" fill="url(#paint0_linear_21_1700)"/>
<path d="M20.5032 25.1024L20.0002 24.8633L19.4971 25.1024C18.55 25.5526 17.5365 25.7808 16.4846 25.7808H15.3127V27.7789C15.3127 30.6624 16.8965 33.3037 19.446 34.6719L20.0002 34.9693L20.5543 34.6719C23.1038 33.3036 24.6876 30.6624 24.6876 27.7789V25.7808H23.5158C22.4639 25.7808 21.4503 25.5526 20.5032 25.1024ZM20.0001 32.2663C18.6141 31.2982 17.7474 29.747 17.6631 28.0514C18.4656 27.9508 19.2471 27.7468 20.0001 27.4407C20.7531 27.7468 21.5346 27.9508 22.3371 28.0514C22.2529 29.7471 21.3861 31.2982 20.0001 32.2663Z" fill="url(#paint1_linear_21_1700)"/>
<path d="M25.8594 14.0623H32.8905V16.406H25.8594V14.0623Z" fill="url(#paint2_linear_21_1700)"/>
</g>
<defs>
<linearGradient id="paint0_linear_21_1700" x1="20" y1="0" x2="20" y2="39.9999" gradientUnits="userSpaceOnUse">
<stop stop-color="#130855"/>
<stop offset="1" stop-color="#009DFF"/>
</linearGradient>
<linearGradient id="paint1_linear_21_1700" x1="20.0002" y1="24.8633" x2="20.0002" y2="34.9693" gradientUnits="userSpaceOnUse">
<stop stop-color="#130855"/>
<stop offset="1" stop-color="#009DFF"/>
</linearGradient>
<linearGradient id="paint2_linear_21_1700" x1="29.375" y1="14.0623" x2="29.375" y2="16.406" gradientUnits="userSpaceOnUse">
<stop stop-color="#130855"/>
<stop offset="1" stop-color="#009DFF"/>
</linearGradient>
<clipPath id="clip0_21_1700">
<rect width="40" height="40" fill="white"/>
</clipPath>
</defs>
</svg>
