<svg width="40" height="40" viewBox="0 0 40 40" fill="none" xmlns="http://www.w3.org/2000/svg">
<g clip-path="url(#clip0_21_1693)">
<path d="M33.2394 25.5232L32.8906 25.337V20.739H24.247V18.9189C26.6718 17.5538 28.2004 14.9771 28.2004 12.1558L28.2053 6.45102C28.2063 5.52695 28.0155 4.63437 27.6384 3.79836C26.5984 1.49094 24.2915 0 21.7613 0H18.2425C14.6898 0 11.7994 2.89078 11.7994 6.44391V12.1548C11.7994 14.977 13.328 17.5538 15.7528 18.9189V20.739H7.10938V25.337L6.76039 25.5234C4.0843 26.9527 2.42188 29.7254 2.42188 32.7594V40H37.5781V32.7594C37.5781 29.7254 35.9157 26.9527 33.2394 25.5232ZM18.2425 2.34375H21.7613C23.0316 2.34375 24.2131 2.93469 24.9806 3.90539L21.4185 6.18453C20.2662 6.92188 18.9339 7.31164 17.5659 7.31164H14.1431V6.44391C14.1431 4.18313 15.9821 2.34375 18.2425 2.34375V2.34375ZM17.3939 17.1213C15.4191 16.2585 14.1431 14.309 14.1431 12.1548V9.65531H17.5659C19.3824 9.65531 21.1515 9.13781 22.6817 8.15867L25.8486 6.13242C25.8564 6.23719 25.8616 6.34242 25.8615 6.44867L25.8566 12.1548C25.8566 14.309 24.5805 16.2585 22.6059 17.1213L21.9031 17.4284V20.739H18.0965V17.4284L17.3939 17.1213ZM30.5469 23.0827V32.9688H9.45312V23.0827H30.5469ZM4.76562 37.6562V32.7594C4.76562 30.8942 5.64578 29.1679 7.10938 28.072V37.6562H4.76562ZM9.45312 37.6562V35.3125H30.5469V37.6562H9.45312ZM35.2344 37.6562H32.8906V28.072C34.3543 29.168 35.2344 30.8943 35.2344 32.7595V37.6562Z" fill="url(#paint0_linear_21_1693)"/>
<path d="M18.8281 25.4148H21.1719V27.7585H18.8281V25.4148Z" fill="url(#paint1_linear_21_1693)"/>
</g>
<defs>
<linearGradient id="paint0_linear_21_1693" x1="20" y1="0" x2="20" y2="40" gradientUnits="userSpaceOnUse">
<stop stop-color="#130855"/>
<stop offset="1" stop-color="#009DFF"/>
</linearGradient>
<linearGradient id="paint1_linear_21_1693" x1="20" y1="25.4148" x2="20" y2="27.7585" gradientUnits="userSpaceOnUse">
<stop stop-color="#130855"/>
<stop offset="1" stop-color="#009DFF"/>
</linearGradient>
<clipPath id="clip0_21_1693">
<rect width="40" height="40" fill="white"/>
</clipPath>
</defs>
</svg>
